<svg width="36" height="36" viewBox="0 0 36 36" fill="none" xmlns="http://www.w3.org/2000/svg">
<path d="M2.9585 18.0348C2.9585 14.0455 4.54324 10.2196 7.3641 7.39877C10.185 4.57791 14.0109 2.99316 18.0002 2.99316C21.9895 2.99316 25.8154 4.57791 28.6362 7.39877C31.4571 10.2196 33.0418 14.0455 33.0418 18.0348C33.0418 18.3498 33.1669 18.6518 33.3896 18.8745C33.6123 19.0972 33.9144 19.2223 34.2293 19.2223C34.5443 19.2223 34.8463 19.0972 35.069 18.8745C35.2917 18.6518 35.4168 18.3498 35.4168 18.0348C35.4168 8.41608 27.6189 0.618164 18.0002 0.618164C8.38141 0.618164 0.583496 8.41608 0.583496 18.0348C0.583496 27.6536 8.38141 35.4515 18.0002 35.4515C18.3151 35.4515 18.6172 35.3264 18.8399 35.1037C19.0625 34.881 19.1877 34.5789 19.1877 34.264C19.1877 33.9491 19.0625 33.647 18.8399 33.4243C18.6172 33.2016 18.3151 33.0765 18.0002 33.0765C14.0109 33.0765 10.185 31.4918 7.3641 28.6709C4.54324 25.85 2.9585 22.0241 2.9585 18.0348Z" fill="#FE4A23"/>
<path d="M18.0002 21.2015C18.84 21.2015 19.6455 20.8679 20.2393 20.274C20.8332 19.6801 21.1668 18.8747 21.1668 18.0348C21.1668 17.195 20.8332 16.3895 20.2393 15.7957C19.6455 15.2018 18.84 14.8682 18.0002 14.8682C17.1603 14.8682 16.3549 15.2018 15.761 15.7957C15.1671 16.3895 14.8335 17.195 14.8335 18.0348C14.8335 18.8747 15.1671 19.6801 15.761 20.274C16.3549 20.8679 17.1603 21.2015 18.0002 21.2015ZM21.9585 25.5557C21.9585 25.2407 22.0836 24.9387 22.3063 24.716C22.529 24.4933 22.8311 24.3682 23.146 24.3682H34.2293C34.5443 24.3682 34.8463 24.4933 35.069 24.716C35.2917 24.9387 35.4168 25.2407 35.4168 25.5557C35.4168 25.8706 35.2917 26.1727 35.069 26.3954C34.8463 26.6181 34.5443 26.7432 34.2293 26.7432H23.146C22.8311 26.7432 22.529 26.6181 22.3063 26.3954C22.0836 26.1727 21.9585 25.8706 21.9585 25.5557ZM27.896 29.9098C27.5811 29.9098 27.279 30.0349 27.0563 30.2576C26.8336 30.4803 26.7085 30.7824 26.7085 31.0973C26.7085 31.4123 26.8336 31.7143 27.0563 31.937C27.279 32.1597 27.5811 32.2848 27.896 32.2848H34.2293C34.5443 32.2848 34.8463 32.1597 35.069 31.937C35.2917 31.7143 35.4168 31.4123 35.4168 31.0973C35.4168 30.7824 35.2917 30.4803 35.069 30.2576C34.8463 30.0349 34.5443 29.9098 34.2293 29.9098H27.896Z" fill="#FE4A23"/>
</svg>
