<svg width="30" height="40" viewBox="0 0 30 40" fill="none" xmlns="http://www.w3.org/2000/svg">
<path d="M19.3264 22.4014L19.3264 22.4015C20.8546 23.9082 21.1779 26.1492 20.296 27.9649L20.1392 28.2875L20.3947 28.5394L23.1895 31.295C23.4279 31.5399 23.5585 31.8655 23.5556 32.2021C23.5526 32.54 23.4152 32.8647 23.1706 33.1058C22.9259 33.3471 22.5933 33.4852 22.2442 33.4882C21.8965 33.4912 21.5627 33.3598 21.314 33.1244L18.5192 30.3687L18.271 30.1241L17.9555 30.2722C16.8969 30.7695 15.6935 30.8822 14.5582 30.59C13.423 30.2979 12.4306 29.6201 11.7551 28.6782C11.0796 27.7365 10.7639 26.5909 10.8624 25.4434C10.9608 24.2959 11.4673 23.2184 12.2941 22.4013C12.7551 21.9467 13.3029 21.5857 13.9062 21.3392C14.5096 21.0928 15.1566 20.9658 15.8102 20.9658C16.4637 20.9658 17.1107 21.0928 17.7141 21.3392C18.3175 21.5857 18.8653 21.9467 19.3264 22.4014ZM17.4447 27.4922C17.6668 27.2806 17.8445 27.0272 17.9668 26.7464C18.0891 26.4656 18.1536 26.1634 18.1563 25.8573C18.159 25.5513 18.0998 25.2479 17.9825 24.9651C17.8651 24.6822 17.692 24.4257 17.4735 24.2103C17.2551 23.995 16.9958 23.8251 16.7108 23.7101C16.4259 23.5952 16.1208 23.5374 15.8133 23.54C15.5059 23.5427 15.2019 23.6057 14.919 23.7255C14.6361 23.8453 14.3797 24.0197 14.1651 24.2388C13.7411 24.6716 13.5053 25.2527 13.5106 25.8573C13.516 26.4619 13.762 27.0389 14.1934 27.4643C14.6246 27.8894 15.2065 28.1294 15.8133 28.1346C16.4202 28.1398 17.0061 27.9098 17.4447 27.4922Z" fill="#FF5B37" stroke="#FAEEF4"/>
<path d="M8.57617 7.94922H22.1595V10.5439H8.57617V7.94922ZM8.57617 17.7333V15.1386H22.1595V17.7333H8.57617Z" fill="#FF5B37" stroke="#FAEEF4"/>
<path d="M1.28467 5.65179C1.28467 4.35664 1.80642 3.11309 2.73748 2.1951C3.66877 1.27687 4.93336 0.759766 6.25342 0.759766H24.4826C25.8027 0.759766 27.0673 1.27687 27.9985 2.19509C28.9296 3.11309 29.4514 4.35664 29.4514 5.65179V34.4092C29.4514 35.7044 28.9296 36.9479 27.9985 37.8659C27.0673 38.7842 25.8027 39.3013 24.4826 39.3013H6.25342C4.93336 39.3013 3.66877 38.7842 2.73748 37.8659C1.80642 36.9479 1.28467 35.7044 1.28467 34.4092V5.65179ZM24.4826 3.35445H6.25342C5.63961 3.35445 5.04953 3.5948 4.61338 4.02483C4.17698 4.45511 3.9305 5.0402 3.9305 5.65179V34.4092C3.9305 35.0208 4.17698 35.6059 4.61338 36.0362C5.04953 36.4662 5.63961 36.7066 6.25342 36.7066H24.4826C25.0964 36.7066 25.6865 36.4662 26.1226 36.0362C26.559 35.6059 26.8055 35.0208 26.8055 34.4092V5.65179C26.8055 5.0402 26.559 4.45511 26.1226 4.02483C25.6865 3.5948 25.0964 3.35445 24.4826 3.35445Z" fill="#FF5B37" stroke="#FAEEF4"/>
</svg>
