<svg width="30" height="33" viewBox="0 0 30 33" fill="none" xmlns="http://www.w3.org/2000/svg">
<path d="M1.69542 11.7673C1.48094 11.7673 1.27524 11.8525 1.12358 12.0041C0.971921 12.1558 0.886719 12.3615 0.886719 12.576V20.663C0.886719 20.8775 0.971921 21.0832 1.12358 21.2348C1.27524 21.3865 1.48094 21.4717 1.69542 21.4717C1.9099 21.4717 2.1156 21.3865 2.26726 21.2348C2.41892 21.0832 2.50412 20.8775 2.50412 20.663V12.576C2.50412 12.3615 2.41892 12.1558 2.26726 12.0041C2.1156 11.8525 1.9099 11.7673 1.69542 11.7673ZM21.6607 4.32396L23.3961 1.70053C23.5145 1.52165 23.557 1.30307 23.5142 1.09286C23.4715 0.882662 23.347 0.698059 23.1681 0.579665C22.9892 0.461272 22.7706 0.418786 22.5604 0.461554C22.3502 0.504323 22.1656 0.628842 22.0472 0.807719L20.3328 3.3988C18.8517 2.52438 17.1633 2.06314 15.4434 2.06314C13.7234 2.06314 12.035 2.52438 10.5539 3.3988L8.8395 0.807719C8.7211 0.628842 8.5365 0.504323 8.3263 0.461554C8.1161 0.418786 7.89751 0.461272 7.71864 0.579665C7.53976 0.698059 7.41524 0.882662 7.37247 1.09286C7.3297 1.30307 7.37219 1.52165 7.49058 1.70053L9.22606 4.32396C8.13453 5.23299 7.25632 6.371 6.65369 7.65732C6.05106 8.94364 5.73877 10.3468 5.73893 11.7673V25.5152C5.73893 25.7297 5.82413 25.9354 5.9758 26.087C6.12746 26.2387 6.33315 26.3239 6.54763 26.3239H11.3998V31.9848C11.3998 32.1993 11.485 32.405 11.6367 32.5566C11.7884 32.7083 11.9941 32.7935 12.2085 32.7935C12.423 32.7935 12.6287 32.7083 12.7804 32.5566C12.9321 32.405 13.0173 32.1993 13.0173 31.9848V26.3239H17.8695V31.9848C17.8695 32.1993 17.9547 32.405 18.1063 32.5566C18.258 32.7083 18.4637 32.7935 18.6782 32.7935C18.8926 32.7935 19.0983 32.7083 19.25 32.5566C19.4017 32.405 19.4869 32.1993 19.4869 31.9848V26.3239H24.3391C24.5536 26.3239 24.7593 26.2387 24.9109 26.087C25.0626 25.9354 25.1478 25.7297 25.1478 25.5152V11.7673C25.1477 10.3468 24.8353 8.94375 24.2327 7.65746C23.6301 6.37118 22.752 5.23314 21.6607 4.32396ZM23.5304 24.7065H7.35634V13.3847H23.5304V24.7065ZM7.35634 11.7673C7.35634 9.62244 8.20836 7.56548 9.72497 6.04886C11.2416 4.53225 13.2985 3.68023 15.4434 3.68023C17.5882 3.68023 19.6451 4.53225 21.1617 6.04886C22.6784 7.56548 23.5304 9.62244 23.5304 11.7673H7.35634ZM29.1913 11.7673C28.9768 11.7673 28.7711 11.8525 28.6195 12.0041C28.4678 12.1558 28.3826 12.3615 28.3826 12.576V20.663C28.3826 20.8775 28.4678 21.0832 28.6195 21.2348C28.7711 21.3865 28.9768 21.4717 29.1913 21.4717C29.4058 21.4717 29.6115 21.3865 29.7631 21.2348C29.9148 21.0832 30 20.8775 30 20.663V12.576C30 12.3615 29.9148 12.1558 29.7631 12.0041C29.6115 11.8525 29.4058 11.7673 29.1913 11.7673Z" fill="#FE4A23"/>
</svg>
