<svg width="27" height="31" viewBox="0 0 27 31" fill="none" xmlns="http://www.w3.org/2000/svg">
<path d="M13.4414 30.8527C13.0258 30.8527 12.6375 30.7409 12.2748 30.5475L8.58944 28.3595C8.03791 28.0527 8.31443 27.9409 8.48064 27.885C9.23012 27.6357 9.36913 27.5813 10.1443 27.1401C10.2289 27.0842 10.3392 27.1099 10.4238 27.1658L13.2495 28.8581C13.3613 28.9125 13.5003 28.9125 13.5834 28.8581L24.6426 22.4559C24.7545 22.4015 24.8089 22.2897 24.8089 22.1507V9.37034C24.8089 9.23284 24.7545 9.12102 24.6426 9.06662L13.5834 2.69158C13.4731 2.63567 13.3341 2.63567 13.2495 2.69158L2.1872 9.06511C2.07689 9.11951 2.02098 9.26004 2.02098 9.36883V22.1476C2.02098 22.2579 2.07689 22.3985 2.1872 22.4529L5.20926 24.2011C6.8442 25.0292 7.8717 24.0576 7.8717 23.0905V10.4794C7.8717 10.3132 8.0092 10.1455 8.20413 10.1455H9.61845C9.78164 10.1455 9.95088 10.2845 9.95088 10.4794V23.092C9.95088 25.2815 8.76019 26.5583 6.68101 26.5583C6.04335 26.5583 5.54471 26.5583 4.13038 25.8633L1.22165 24.2026C0.867246 23.9966 0.573127 23.7012 0.368687 23.3459C0.164247 22.9905 0.0566464 22.5878 0.0566406 22.1778V9.39754C0.0566406 8.56647 0.499373 7.7898 1.22165 7.37427L12.2764 0.972024C12.6352 0.7801 13.0359 0.679688 13.4429 0.679688C13.8498 0.679688 14.2505 0.7801 14.6094 0.972024L25.6656 7.37427C26.3894 7.78829 26.8306 8.56647 26.8306 9.39754V22.1778C26.8306 23.0074 26.3879 23.7841 25.6656 24.2026L14.6094 30.6034C14.2452 30.7696 13.8297 30.8527 13.4414 30.8527ZM16.8503 22.0645C11.9998 22.0645 11.0026 19.8463 11.0026 17.9636C11.0026 17.7974 11.1416 17.6296 11.335 17.6296H12.7765C12.9427 17.6296 13.0802 17.7399 13.0802 17.9077C13.3023 19.3749 13.9385 20.0972 16.879 20.0972C19.2059 20.0972 20.2063 19.5683 20.2063 18.3217C20.2063 17.6009 19.9267 17.0751 16.2972 16.7155C13.2767 16.4133 11.3924 15.7439 11.3924 13.3338C11.3924 11.0899 13.2767 9.75867 16.4377 9.75867C19.9841 9.75867 21.7309 10.9811 21.9515 13.639C21.9489 13.7287 21.9194 13.8155 21.8669 13.8883C21.811 13.9427 21.7294 13.9986 21.6463 13.9986H20.2063C20.1351 13.9971 20.0664 13.9719 20.0112 13.9271C19.9559 13.8822 19.9171 13.8202 19.901 13.7508C19.5671 12.2217 18.7088 11.726 16.4377 11.726C13.8856 11.726 13.5804 12.613 13.5804 13.2779C13.5804 14.0802 13.9385 14.3295 17.3791 14.7738C20.788 15.2165 22.3957 15.8542 22.3957 18.2401C22.3655 20.6804 20.3725 22.0645 16.8503 22.0645Z" fill="#FE4A23"/>
</svg>
