<svg width="27" height="28" viewBox="0 0 27 28" fill="none" xmlns="http://www.w3.org/2000/svg">
<path d="M25.6146 5.51697L13.5217 0.478251C13.4313 0.434717 13.3322 0.412109 13.2319 0.412109C13.1316 0.412109 13.0326 0.434717 12.9422 0.478251L0.84927 5.51697C0.696077 5.57983 0.568262 5.69205 0.486108 5.83582C0.403953 5.97959 0.372164 6.14668 0.395785 6.31057L2.41127 21.4267C2.42404 21.5495 2.46771 21.667 2.5382 21.7684C2.60869 21.8697 2.7037 21.9515 2.81437 22.0062L12.8918 27.0449C12.9983 27.0945 13.1144 27.1202 13.2319 27.1202C13.3494 27.1202 13.4655 27.0945 13.572 27.0449L23.6495 22.0062C23.7602 21.9515 23.8552 21.8697 23.9257 21.7684C23.9961 21.667 24.0398 21.5495 24.0526 21.4267L26.0681 6.31057C26.0917 6.14668 26.0599 5.97959 25.9778 5.83582C25.8956 5.69205 25.7678 5.57983 25.6146 5.51697ZM22.6166 20.8347L13.2319 25.5207L3.84731 20.8347L1.97039 6.68848L13.2319 1.98987L24.4935 6.68848L22.6166 20.8347ZM12.5517 7.88517L8.01685 16.9549C7.92665 17.1353 7.91181 17.3441 7.97559 17.5355C8.03937 17.7268 8.17656 17.885 8.35697 17.9752C8.53737 18.0654 8.74623 18.0803 8.93758 18.0165C9.12893 17.9527 9.2871 17.8155 9.37731 17.6351L10.511 15.3677H15.9528L17.0866 17.6351C17.1511 17.76 17.2486 17.8648 17.3685 17.9381C17.4885 18.0114 17.6262 18.0504 17.7668 18.0508C17.8842 18.0499 18.0001 18.0241 18.1069 17.9752C18.2835 17.8811 18.4173 17.7228 18.4806 17.5329C18.5439 17.3431 18.5318 17.1361 18.447 16.9549L13.9122 7.88517C13.847 7.76117 13.7492 7.65734 13.6293 7.5849C13.5094 7.51246 13.372 7.47417 13.2319 7.47417C13.0919 7.47417 12.9544 7.51246 12.8346 7.5849C12.7147 7.65734 12.6169 7.76117 12.5517 7.88517ZM15.197 13.8561H11.2668L13.2319 9.91326L15.197 13.8561Z" fill="#FE4A23"/>
</svg>
