<svg width="37" height="39" viewBox="0 0 37 39" fill="none" xmlns="http://www.w3.org/2000/svg">
<path d="M35.9177 7.62482L18.6996 0.450619C18.5709 0.388634 18.4299 0.356445 18.2871 0.356445C18.1443 0.356445 18.0033 0.388634 17.8746 0.450619L0.656502 7.62482C0.438383 7.71432 0.256399 7.8741 0.139426 8.0788C0.0224533 8.2835 -0.0228083 8.5214 0.0108232 8.75476L2.8805 30.2774C2.89869 30.4522 2.96086 30.6195 3.06123 30.7638C3.16159 30.9081 3.29687 31.0246 3.45444 31.1024L17.8028 38.2766C17.9545 38.3472 18.1198 38.3838 18.2871 38.3838C18.4544 38.3838 18.6197 38.3472 18.7714 38.2766L33.1198 31.1024C33.2773 31.0246 33.4126 30.9081 33.513 30.7638C33.6133 30.6195 33.6755 30.4522 33.6937 30.2774L36.5634 8.75476C36.597 8.5214 36.5518 8.2835 36.4348 8.0788C36.3178 7.8741 36.1358 7.71432 35.9177 7.62482ZM31.6491 29.4344L18.2871 36.1064L4.92515 29.4344L2.25276 9.29282L18.2871 2.60288L34.3214 9.29282L31.6491 29.4344ZM17.3186 10.9967L10.8618 23.9103C10.7334 24.1671 10.7122 24.4645 10.8031 24.7369C10.8939 25.0094 11.0892 25.2346 11.3461 25.363C11.6029 25.4915 11.9003 25.5126 12.1727 25.4218C12.4452 25.331 12.6704 25.1356 12.7988 24.8788L14.413 21.6504H22.1612L23.7754 24.8788C23.8672 25.0566 24.0061 25.2058 24.1769 25.3101C24.3476 25.4145 24.5438 25.47 24.7439 25.4707C24.9111 25.4694 25.0761 25.4327 25.2281 25.363C25.4796 25.229 25.6701 25.0036 25.7602 24.7333C25.8503 24.463 25.8332 24.1684 25.7124 23.9103L19.2556 10.9967C19.1629 10.8201 19.0236 10.6723 18.8529 10.5692C18.6822 10.466 18.4865 10.4115 18.2871 10.4115C18.0877 10.4115 17.892 10.466 17.7213 10.5692C17.5506 10.6723 17.4114 10.8201 17.3186 10.9967ZM21.085 19.4981H15.4892L18.2871 13.8843L21.085 19.4981Z" fill="#FE4A23"/>
</svg>
