<svg width="32" height="36" viewBox="0 0 32 36" fill="none" xmlns="http://www.w3.org/2000/svg">
<path d="M15.6104 35.9043C15.1291 35.9043 14.6794 35.7748 14.2594 35.5508L9.99114 33.0168C9.35239 32.6615 9.67264 32.532 9.86514 32.4673C10.7331 32.1785 10.8941 32.1155 11.7919 31.6045C11.8899 31.5398 12.0176 31.5695 12.1156 31.6343L15.3881 33.5943C15.5176 33.6573 15.6786 33.6573 15.7749 33.5943L28.5831 26.1795C28.7126 26.1165 28.7756 25.987 28.7756 25.826V11.0245C28.7756 10.8653 28.7126 10.7358 28.5831 10.6728L15.7749 3.28954C15.6471 3.22479 15.4861 3.22479 15.3881 3.28954L2.57639 10.671C2.44864 10.734 2.38389 10.8968 2.38389 11.0228V25.8225C2.38389 25.9503 2.44864 26.113 2.57639 26.176L6.07639 28.2008C7.96989 29.1598 9.15989 28.0345 9.15989 26.9145V12.309C9.15989 12.1165 9.31914 11.9223 9.54489 11.9223H11.1829C11.3719 11.9223 11.5679 12.0833 11.5679 12.309V26.9163C11.5679 29.452 10.1889 30.9308 7.78089 30.9308C7.04239 30.9308 6.46489 30.9308 4.82689 30.1258L1.45814 28.2025C1.04769 27.9639 0.707055 27.6218 0.470283 27.2103C0.233511 26.7988 0.108893 26.3323 0.108887 25.8575V11.056C0.108887 10.0935 0.621637 9.19404 1.45814 8.71279L14.2611 1.29804C14.6768 1.07577 15.1408 0.959473 15.6121 0.959473C16.0835 0.959473 16.5475 1.07577 16.9631 1.29804L29.7679 8.71279C30.6061 9.19229 31.1171 10.0935 31.1171 11.056V25.8575C31.1171 26.8183 30.6044 27.7178 29.7679 28.2025L16.9631 35.6155C16.5414 35.808 16.0601 35.9043 15.6104 35.9043ZM19.5584 25.7263C13.9409 25.7263 12.7859 23.1573 12.7859 20.9768C12.7859 20.7843 12.9469 20.59 13.1709 20.59H14.8404C15.0329 20.59 15.1921 20.7178 15.1921 20.912C15.4494 22.6113 16.1861 23.4478 19.5916 23.4478C22.2866 23.4478 23.4451 22.8353 23.4451 21.3915C23.4451 20.5568 23.1214 19.9478 18.9179 19.5313C15.4196 19.1813 13.2374 18.406 13.2374 15.6148C13.2374 13.016 15.4196 11.4743 19.0806 11.4743C23.1879 11.4743 25.2109 12.89 25.4664 15.9683C25.4633 16.0722 25.4292 16.1728 25.3684 16.257C25.3036 16.32 25.2091 16.3848 25.1129 16.3848H23.4451C23.3627 16.383 23.2832 16.3539 23.2192 16.3019C23.1552 16.2499 23.1103 16.1781 23.0916 16.0978C22.7049 14.3268 21.7109 13.7528 19.0806 13.7528C16.1249 13.7528 15.7714 14.78 15.7714 15.55C15.7714 16.4793 16.1861 16.768 20.1709 17.2825C24.1189 17.7953 25.9809 18.5338 25.9809 21.297C25.9459 24.1233 23.6376 25.7263 19.5584 25.7263Z" fill="#FE4A23"/>
</svg>
