<svg width="31" height="34" viewBox="0 0 31 34" fill="none" xmlns="http://www.w3.org/2000/svg">
<path d="M1.5765 12.242C1.35548 12.242 1.14352 12.3298 0.987242 12.4861C0.830962 12.6423 0.743164 12.8543 0.743164 13.0753V21.4086C0.743164 21.6297 0.830962 21.8416 0.987242 21.9979C1.14352 22.1542 1.35548 22.242 1.5765 22.242C1.79751 22.242 2.00947 22.1542 2.16575 21.9979C2.32203 21.8416 2.40983 21.6297 2.40983 21.4086V13.0753C2.40983 12.8543 2.32203 12.6423 2.16575 12.4861C2.00947 12.3298 1.79751 12.242 1.5765 12.242ZM22.1498 4.57197L23.9382 1.86864C24.0602 1.68431 24.1039 1.45907 24.0599 1.24247C24.0158 1.02587 23.8875 0.83564 23.7032 0.71364C23.5188 0.591641 23.2936 0.547861 23.077 0.591932C22.8604 0.636003 22.6702 0.764315 22.5482 0.94864L20.7815 3.61864C19.2553 2.71759 17.5155 2.2423 15.7432 2.2423C13.9709 2.2423 12.231 2.71759 10.7048 3.61864L8.93816 0.94864C8.81616 0.764315 8.62594 0.636003 8.40933 0.591932C8.19273 0.547861 7.96749 0.591641 7.78316 0.71364C7.59884 0.83564 7.47053 1.02587 7.42646 1.24247C7.38238 1.45907 7.42616 1.68431 7.54816 1.86864L9.3365 4.57197C8.21172 5.50869 7.30677 6.68137 6.68579 8.00686C6.0648 9.33236 5.74299 10.7782 5.74316 12.242V26.4086C5.74316 26.6297 5.83096 26.8416 5.98724 26.9979C6.14352 27.1542 6.35548 27.242 6.5765 27.242H11.5765V33.0753C11.5765 33.2963 11.6643 33.5083 11.8206 33.6646C11.9769 33.8208 12.1888 33.9086 12.4098 33.9086C12.6308 33.9086 12.8428 33.8208 12.9991 33.6646C13.1554 33.5083 13.2432 33.2963 13.2432 33.0753V27.242H18.2432V33.0753C18.2432 33.2963 18.331 33.5083 18.4872 33.6646C18.6435 33.8208 18.8555 33.9086 19.0765 33.9086C19.2975 33.9086 19.5095 33.8208 19.6658 33.6646C19.822 33.5083 19.9098 33.2963 19.9098 33.0753V27.242H24.9098C25.1308 27.242 25.3428 27.1542 25.4991 26.9979C25.6554 26.8416 25.7432 26.6297 25.7432 26.4086V12.242C25.7431 10.7783 25.4212 9.33247 24.8002 8.00701C24.1793 6.68155 23.2744 5.50885 22.1498 4.57197ZM24.0765 25.5753H7.40983V13.9086H24.0765V25.5753ZM7.40983 12.242C7.40983 10.0318 8.2878 7.91222 9.85061 6.34942C11.4134 4.78661 13.533 3.90864 15.7432 3.90864C17.9533 3.90864 20.0729 4.78661 21.6357 6.34942C23.1985 7.91222 24.0765 10.0318 24.0765 12.242H7.40983ZM29.9098 12.242C29.6888 12.242 29.4769 12.3298 29.3206 12.4861C29.1643 12.6423 29.0765 12.8543 29.0765 13.0753V21.4086C29.0765 21.6297 29.1643 21.8416 29.3206 21.9979C29.4769 22.1542 29.6888 22.242 29.9098 22.242C30.1308 22.242 30.3428 22.1542 30.4991 21.9979C30.6554 21.8416 30.7432 21.6297 30.7432 21.4086V13.0753C30.7432 12.8543 30.6554 12.6423 30.4991 12.4861C30.3428 12.3298 30.1308 12.242 29.9098 12.242Z" fill="#FE4A23"/>
</svg>
