<svg width="35" height="34" viewBox="0 0 35 34" fill="none" xmlns="http://www.w3.org/2000/svg">
<path d="M5.56013 26.9804C3.47172 24.4915 3.79724 20.7708 6.28612 18.6824L12.1081 13.7972L9.78759 11.0318L3.96565 15.917C-0.0514824 19.2877 -0.576064 25.2837 2.79471 29.3009C6.16549 33.318 12.1615 33.8426 16.1786 30.4718L22.0006 25.5866L19.6801 22.8212L13.8582 27.7064C11.3693 29.7948 7.64855 29.4693 5.56013 26.9804ZM12.7489 23.4286L24.3928 13.6582L21.9502 10.7472L10.3063 20.5176L12.7489 23.4286ZM18.5205 3.70399L12.6986 8.58918L15.019 11.3546L20.841 6.46941C23.3298 4.38099 27.0506 4.70652 29.139 7.1954C31.2274 9.68427 30.9019 13.405 28.413 15.4934L22.5911 20.3786L24.9115 23.144L30.7335 18.2588C34.7506 14.8881 35.2752 8.89207 31.9044 4.87493C28.5336 0.857795 22.5376 0.333214 18.5205 3.70399Z" fill="#FE4A23" stroke="white"/>
</svg>
