<svg width="35" height="35" viewBox="0 0 35 35" fill="none" xmlns="http://www.w3.org/2000/svg">
<path d="M17.4419 12.2381H5.19189C4.26364 12.2381 3.3734 12.6156 2.71702 13.2877C2.06064 13.9597 1.69189 14.8711 1.69189 15.8215V22.9881C1.69189 23.9385 2.06064 24.8499 2.71702 25.5219C3.3734 26.1939 4.26364 26.5715 5.19189 26.5715H10.4419M17.4419 22.9881H29.6919C30.6202 22.9881 31.5104 22.6106 32.1668 21.9386C32.8231 21.2666 33.1919 20.3551 33.1919 19.4048V12.2381C33.1919 11.2878 32.8231 10.3763 32.1668 9.70432C31.5104 9.03231 30.6202 8.65479 29.6919 8.65479H24.4419" stroke="#FE4A23" stroke-width="2" stroke-linecap="round" stroke-linejoin="round"/>
<path d="M10.4419 12.2383V5.07161C10.4419 4.12126 10.8106 3.20982 11.467 2.53782C12.1234 1.86581 13.0136 1.48828 13.9419 1.48828H20.9419C21.8702 1.48828 22.7604 1.86581 23.4168 2.53782C24.0731 3.20982 24.4419 4.12126 24.4419 5.07161V14.0299C24.4419 14.9803 24.0731 15.8917 23.4168 16.5637C22.7604 17.2358 21.8702 17.6133 20.9419 17.6133H13.9419C13.0136 17.6133 12.1234 17.9908 11.467 18.6628C10.8106 19.3348 10.4419 20.2463 10.4419 21.1966V30.1549C10.4419 31.1053 10.8106 32.0167 11.467 32.6887C12.1234 33.3608 13.0136 33.7383 13.9419 33.7383H20.9419C21.8702 33.7383 22.7604 33.3608 23.4168 32.6887C24.0731 32.0167 24.4419 31.1053 24.4419 30.1549V22.9883M15.6919 6.86328V6.8812M19.1919 28.3633V28.3812" stroke="#FE4A23" stroke-width="2" stroke-linecap="round" stroke-linejoin="round"/>
</svg>
