<svg width="48" height="32" viewBox="0 0 48 32" fill="none" xmlns="http://www.w3.org/2000/svg">
<path d="M32.841 3.32259C32.6132 3.32259 32.4614 3.35325 32.3081 3.3912V3.41456H32.3314C32.438 3.61165 32.6132 3.76495 32.749 3.94744C32.8556 4.15329 32.9461 4.36498 33.0454 4.57083L33.076 4.54017C33.2585 4.41023 33.3505 4.20584 33.3505 3.89342C33.2746 3.80144 33.2585 3.70363 33.1913 3.61895C33.1154 3.48902 32.9475 3.42186 32.841 3.32259ZM12.1363 29.0071H10.3347C10.2802 26.1396 10.1053 23.2756 9.8106 20.4227H9.796L7.05133 29.0071H5.67462L2.95185 20.4227H2.92849C2.7169 23.2798 2.59032 26.1425 2.54891 29.0071H0.906494C0.995427 25.4072 1.26195 21.8138 1.70507 18.2401H3.94023L6.54036 26.1486H6.55496L9.17845 18.2401H11.307C11.7786 22.1644 12.0603 25.7529 12.1436 29.0071H12.1363ZM19.9527 21.0622C19.2228 25.0463 18.249 27.9443 17.0562 29.7458C16.1131 31.1371 15.0868 31.8364 13.9685 31.8364C13.6721 31.8364 13.3071 31.7445 12.8662 31.562V30.6043C13.0867 30.6349 13.3378 30.6568 13.6195 30.6568C14.1437 30.6568 14.5627 30.505 14.8824 30.2232C15.262 29.8728 15.4532 29.4787 15.4532 29.0451C15.4532 28.7414 15.3087 28.1326 15.005 27.2056L13.0356 21.0622H14.8079L16.2226 25.6551C16.5423 26.7048 16.6796 27.4275 16.6182 27.845C17.4008 25.7763 17.9409 23.5105 18.2461 21.0622H19.9527ZM43.9496 29.0071H38.8252V18.2401H40.5508V27.6844H43.9496V29.0071ZM37.4865 29.267L35.5097 28.2932C35.6849 28.1487 35.8513 27.9895 36.0046 27.807C36.8485 26.826 37.2675 25.3587 37.2675 23.4273C37.2675 19.8607 35.8689 18.0825 33.0702 18.0825C31.7008 18.0825 30.6292 18.5307 29.8613 19.4358C29.0247 20.4242 28.5984 21.8841 28.5984 23.8083C28.5984 25.7018 28.9707 27.0858 29.7167 27.9749C30.4014 28.7662 31.4278 29.1692 32.8045 29.1692C33.314 29.1692 33.7855 29.1078 34.2118 28.9794L36.7901 30.4846L37.4967 29.2684L37.4865 29.267ZM31.0774 26.8479C30.6365 26.1486 30.4233 25.023 30.4233 23.4711C30.4233 20.757 31.2453 19.4037 32.895 19.4037C33.7549 19.4037 34.3929 19.7307 34.7958 20.3775C35.2294 21.0841 35.4499 22.1951 35.4499 23.7309C35.4499 26.461 34.6206 27.8377 32.9782 27.8377C32.111 27.8377 31.4803 27.5107 31.0701 26.8639L31.0774 26.8479ZM27.8524 26.0274C27.8524 26.9398 27.5181 27.6932 26.8407 28.2698C26.172 28.8553 25.2815 29.1516 24.1486 29.1516C23.0916 29.1516 22.0798 28.8173 21.0842 28.1472L21.5484 27.2202C22.3996 27.6465 23.1675 27.8596 23.8682 27.8596C24.515 27.8596 25.0245 27.7151 25.3895 27.4333C25.7545 27.1442 25.9749 26.7413 25.9749 26.2318C25.9749 25.5923 25.5267 25.0449 24.7121 24.5894C23.9588 24.1718 22.4463 23.3119 22.4463 23.3119C21.6243 22.7119 21.2214 22.0724 21.2214 21.0155C21.2214 20.141 21.5251 19.4417 22.1339 18.9088C22.7499 18.3613 23.5325 18.0956 24.5062 18.0956C25.475 18.0872 26.4248 18.365 27.2363 18.8942L26.8188 19.8212C26.1664 19.534 25.4628 19.3815 24.75 19.373C24.1953 19.373 23.769 19.5103 23.4726 19.776C23.1762 20.0417 22.9937 20.376 22.9937 20.795C22.9937 21.4345 23.4507 21.9819 24.2858 22.452C25.0537 22.8696 26.5969 23.7528 26.5969 23.7528C27.4407 24.3456 27.8597 24.985 27.8597 26.0259L27.8524 26.0274ZM46.1103 14.6297C45.0679 14.6064 44.262 14.7129 43.586 15.002C43.3962 15.0779 43.0838 15.0779 43.0532 15.3217C43.1597 15.4283 43.1743 15.5962 43.2663 15.7393C43.4254 15.9977 43.6926 16.3481 43.9437 16.5306C44.2182 16.7437 44.4912 16.9569 44.773 17.1393C45.2825 17.4518 45.8533 17.6343 46.3541 17.9452C46.6358 18.1277 46.9249 18.3628 47.2052 18.554C47.3497 18.6533 47.4403 18.8285 47.6227 18.8883V18.8504C47.5308 18.7365 47.5089 18.5686 47.4169 18.4328C47.287 18.3029 47.1585 18.189 47.0285 18.0606C46.6478 17.5551 46.1913 17.1114 45.6752 16.7452C45.2577 16.4634 44.3452 16.0678 44.1773 15.5889L44.1539 15.5582C44.4357 15.5349 44.77 15.4283 45.043 15.3524C45.4839 15.2385 45.8942 15.2604 46.3511 15.1465C46.5608 15.0921 46.7687 15.0313 46.9745 14.9641V14.8502C46.7395 14.6151 46.5643 14.2954 46.3205 14.075C45.6486 13.4871 44.9316 12.9531 44.1758 12.4778C43.7656 12.2121 43.2488 12.0442 42.8152 11.8237C42.6634 11.7478 42.3977 11.7099 42.313 11.5799C42.0779 11.2909 41.9407 10.9186 41.7728 10.5755C41.3909 9.83329 41.0359 9.07753 40.7085 8.3097C40.4735 7.80019 40.3362 7.29797 40.0472 6.82642C38.7084 4.61316 37.2485 3.27587 35.0133 1.96047C34.5345 1.68601 33.9564 1.57213 33.3476 1.4276C33.0205 1.413 32.7008 1.38964 32.3738 1.37504C32.1606 1.28307 31.9562 1.04072 31.7738 0.918086C31.0292 0.446529 29.1123 -0.565201 28.5721 0.773553C28.2218 1.62469 29.089 2.45393 29.3941 2.88023C29.6145 3.18389 29.8963 3.51968 30.0554 3.854C30.1474 4.08175 30.1693 4.31826 30.2613 4.55331C30.4671 5.12414 30.6642 5.76213 30.9387 6.295C31.0832 6.56947 31.235 6.85707 31.4175 7.10088C31.5241 7.24541 31.7066 7.30673 31.7446 7.54178C31.5621 7.80749 31.5475 8.19583 31.4482 8.51555C30.9766 9.99008 31.1591 11.8077 31.8205 12.8953C32.0336 13.2224 32.5271 13.9377 33.1899 13.6633C33.7753 13.4282 33.6468 12.6895 33.8133 12.0354C33.8512 11.8763 33.8279 11.777 33.9053 11.6705V11.7011C34.095 12.0661 34.2775 12.4165 34.4454 12.7815C34.8411 13.4209 35.5477 14.0823 36.1331 14.5232C36.4455 14.7582 36.6879 15.1626 37.0762 15.3057V15.2677H37.0456C36.9623 15.1538 36.8558 15.0998 36.7492 15.0093C36.5026 14.7651 36.2738 14.5036 36.0645 14.2268C35.5243 13.4968 35.0382 12.6909 34.6119 11.8617C34.4065 11.452 34.219 11.0336 34.0498 10.6076C33.9739 10.4558 33.9739 10.2193 33.8439 10.1434C33.6468 10.4251 33.3578 10.6675 33.2205 11.0252C32.9694 11.5799 32.9461 12.2719 32.8483 12.9873C32.803 13.0019 32.8249 12.9873 32.803 13.018C32.3855 12.9114 32.2409 12.4851 32.0876 12.1201C31.692 11.1931 31.6307 9.70977 31.9665 8.64548C32.0584 8.37102 32.4453 7.51258 32.2935 7.25417C32.2103 7.00307 31.9519 6.85853 31.8146 6.66144C31.6394 6.41763 31.4643 6.10667 31.3431 5.8322C31.0307 5.10224 30.8788 4.29636 30.5372 3.5664C30.3854 3.23207 30.1109 2.88169 29.8905 2.57072C29.6393 2.22034 29.3663 1.97069 29.1751 1.55899C29.1065 1.41446 29.016 1.17941 29.1225 1.02612C29.1459 0.919545 29.1984 0.881588 29.305 0.850929C29.4729 0.706396 29.9591 0.888887 30.127 0.972103C30.6058 1.16189 31.0088 1.34438 31.4117 1.61885C31.5942 1.74878 31.7913 1.99113 32.0278 2.05975H32.3023C32.7198 2.15173 33.184 2.08311 33.5724 2.20428C34.2644 2.42473 34.8878 2.74446 35.4499 3.09338C37.1688 4.19679 38.5666 5.7336 39.5026 7.54908C39.6618 7.84545 39.7304 8.11991 39.8749 8.43088C40.1406 9.07762 40.4837 9.72291 40.7567 10.339C41.0297 10.9551 41.2896 11.5785 41.6838 12.088C41.8808 12.3625 42.6575 12.5055 43.0137 12.6428C43.2722 12.7639 43.6751 12.8705 43.9028 13.0078C44.351 13.2822 44.7919 13.5932 45.2109 13.8968C45.4241 14.0414 46.0708 14.3684 46.1088 14.6268L46.1103 14.6297Z" fill="#FE4A23"/>
</svg>
