<svg width="51" height="28" viewBox="0 0 51 28" fill="none" xmlns="http://www.w3.org/2000/svg">
<path d="M25.2882 2.29101C38.8332 2.29101 49.2487 7.99665 49.2487 14.2634C49.2487 20.5301 38.8253 26.2358 25.2882 26.2358C11.7432 26.2358 1.32763 20.5301 1.32763 14.2634C1.32763 7.99665 11.7511 2.29101 25.2882 2.29101ZM25.2882 0.963379C11.3244 0.963379 0 6.914 0 14.2634C0 21.6128 11.3244 27.5634 25.2882 27.5634C39.252 27.5634 50.5764 21.6128 50.5764 14.2634C50.5764 6.914 39.252 0.963379 25.2882 0.963379ZM17.2434 13.1965C16.6191 16.3971 14.4143 16.0652 11.7037 16.0652L12.7863 10.486C15.7893 10.486 17.8282 10.162 17.2434 13.1965ZM7.69709 21.7155H10.5973L11.2848 18.1751C14.5328 18.1751 16.548 18.4122 18.413 16.6658C20.4755 14.7691 21.0129 11.3948 19.543 9.70361C18.7765 8.81852 17.5437 8.38388 15.8683 8.38388H10.2812L7.69709 21.7155ZM22.3721 4.83563H25.2566L24.569 8.37598C27.0583 8.37598 29.3659 8.19422 30.4802 9.22155C31.6497 10.2963 31.0887 11.6713 29.8242 18.1593H26.9003C28.1173 11.8847 28.3465 11.3631 27.9039 10.889C27.4772 10.4306 26.5052 10.5255 24.1581 10.5255L22.6724 18.1593H19.788L22.3721 4.83563ZM39.9079 13.1965C39.2757 16.4445 37.0077 16.0652 34.3682 16.0652L35.4509 10.486C38.4696 10.486 40.4927 10.162 39.9079 13.1965ZM30.3616 21.7155H33.2698L33.9573 18.1751C37.3712 18.1751 39.2599 18.3727 41.0854 16.6658C43.148 14.7691 43.6853 11.3948 42.2155 9.70361C41.4489 8.81852 40.2161 8.38388 38.5408 8.38388H32.9537L30.3616 21.7155Z" fill="#FE4A23"/>
</svg>
