<svg width="39" height="39" viewBox="0 0 39 39" fill="none" xmlns="http://www.w3.org/2000/svg">
<path d="M34.0344 1.11328H4.03442C3.23877 1.11328 2.47571 1.42935 1.9131 1.99196C1.35049 2.55457 1.03442 3.31763 1.03442 4.11328V34.1133C1.03442 34.9089 1.35049 35.672 1.9131 36.2346C2.47571 36.7972 3.23877 37.1133 4.03442 37.1133H34.0344C34.8301 37.1133 35.5931 36.7972 36.1557 36.2346C36.7184 35.672 37.0344 34.9089 37.0344 34.1133V4.11328C37.0344 3.31763 36.7184 2.55457 36.1557 1.99196C35.5931 1.42935 34.8301 1.11328 34.0344 1.11328Z" stroke="#FE4A23" stroke-width="2"/>
<path d="M15.0344 10.1133L9.03442 28.1133M27.0344 28.1133V20.1133M27.0344 15.1133V14.1133M15.0344 10.1133L21.0344 28.1133M11.0344 22.1133H19.0344" stroke="#FE4A23" stroke-width="2" stroke-linecap="round" stroke-linejoin="round"/>
</svg>
