<svg width="30" height="40" viewBox="0 0 30 40" fill="none" xmlns="http://www.w3.org/2000/svg">
<path d="M18.5553 22.3712L18.5554 22.3712C20.0835 23.8779 20.4069 26.1189 19.5249 27.9346L19.3682 28.2573L19.6236 28.5091L22.4184 31.2647C22.6568 31.5096 22.7875 31.8353 22.7845 32.1718C22.7815 32.5097 22.6441 32.8344 22.3996 33.0755C22.1548 33.3168 21.8223 33.4549 21.4732 33.4579C21.1254 33.4609 20.7917 33.3295 20.5429 33.0941L17.7481 30.3385L17.4999 30.0938L17.1845 30.242C16.1258 30.7392 14.9224 30.8519 13.7872 30.5597C12.652 30.2676 11.6596 29.5898 10.984 28.648C10.3086 27.7063 9.99286 26.5606 10.0913 25.4131C10.1898 24.2657 10.6962 23.1881 11.523 22.371C11.9841 21.9164 12.5318 21.5554 13.1352 21.309C13.7386 21.0625 14.3856 20.9355 15.0391 20.9355C15.6927 20.9355 16.3396 21.0625 16.9431 21.309C17.5465 21.5554 18.0943 21.9165 18.5553 22.3712ZM16.6736 27.4619C16.8958 27.2504 17.0734 26.9969 17.1957 26.7161C17.3181 26.4353 17.3825 26.1331 17.3852 25.8271C17.3879 25.521 17.3288 25.2177 17.2114 24.9348C17.094 24.6519 16.9209 24.3954 16.7025 24.1801C16.484 23.9647 16.2247 23.7948 15.9397 23.6798C15.6548 23.5649 15.3497 23.5071 15.0423 23.5098C14.7348 23.5124 14.4308 23.5754 14.1479 23.6952C13.865 23.815 13.6087 23.9894 13.394 24.2085C12.9701 24.6413 12.7343 25.2224 12.7396 25.8271C12.7449 26.4317 12.9909 27.0086 13.4224 27.434C13.8536 27.8591 14.4355 28.0991 15.0423 28.1043C15.6491 28.1095 16.2351 27.8796 16.6736 27.4619Z" fill="#FF5B37" stroke="#FAEEF4"/>
<path d="M7.80536 7.91895H21.3887V10.5136H7.80536V7.91895ZM7.80536 17.703V15.1083H21.3887V17.703H7.80536Z" fill="#FF5B37" stroke="#FAEEF4"/>
<path d="M0.513733 5.62152C0.513733 4.32637 1.03548 3.08282 1.96654 2.16482C2.89784 1.24659 4.16243 0.729492 5.48249 0.729492H23.7117C25.0317 0.729492 26.2963 1.24659 27.2276 2.16482C28.1587 3.08282 28.6804 4.32637 28.6804 5.62152V34.379C28.6804 35.6741 28.1587 36.9177 27.2276 37.8357C26.2963 38.7539 25.0317 39.271 23.7117 39.271H5.48249C4.16243 39.271 2.89784 38.7539 1.96654 37.8357C1.03548 36.9177 0.513733 35.6741 0.513733 34.379V5.62152ZM23.7117 3.32417H5.48249C4.86867 3.32417 4.2786 3.56452 3.84244 3.99456C3.40605 4.42483 3.15957 5.00992 3.15957 5.62152V34.379C3.15957 34.9906 3.40605 35.5757 3.84244 36.0059C4.2786 36.436 4.86867 36.6763 5.48249 36.6763H23.7117C24.3255 36.6763 24.9156 36.436 25.3517 36.0059C25.7881 35.5757 26.0346 34.9906 26.0346 34.379V5.62152C26.0346 5.00993 25.7881 4.42484 25.3517 3.99456C24.9156 3.56452 24.3255 3.32417 23.7117 3.32417Z" fill="#FF5B37" stroke="#FAEEF4"/>
</svg>
