<svg width="39" height="39" viewBox="0 0 39 39" fill="none" xmlns="http://www.w3.org/2000/svg">
<path d="M4.66138 19.7907C4.66138 15.8014 6.24612 11.9755 9.06698 9.15462C11.8878 6.33377 15.7137 4.74902 19.703 4.74902C23.6923 4.74902 27.5182 6.33377 30.3391 9.15462C33.16 11.9755 34.7447 15.8014 34.7447 19.7907C34.7447 20.1056 34.8698 20.4077 35.0925 20.6304C35.3152 20.8531 35.6173 20.9782 35.9322 20.9782C36.2472 20.9782 36.5492 20.8531 36.7719 20.6304C36.9946 20.4077 37.1197 20.1056 37.1197 19.7907C37.1197 10.1719 29.3218 2.37402 19.703 2.37402C10.0843 2.37402 2.28638 10.1719 2.28638 19.7907C2.28638 29.4094 10.0843 37.2074 19.703 37.2074C20.018 37.2074 20.32 37.0822 20.5427 36.8595C20.7654 36.6368 20.8905 36.3348 20.8905 36.0199C20.8905 35.7049 20.7654 35.4029 20.5427 35.1802C20.32 34.9575 20.018 34.8324 19.703 34.8324C15.7137 34.8324 11.8878 33.2476 9.06698 30.4268C6.24612 27.6059 4.66138 23.78 4.66138 19.7907Z" fill="#FE4A23"/>
<path d="M19.703 22.9574C20.5429 22.9574 21.3483 22.6237 21.9422 22.0299C22.5361 21.436 22.8697 20.6305 22.8697 19.7907C22.8697 18.9508 22.5361 18.1454 21.9422 17.5515C21.3483 16.9577 20.5429 16.624 19.703 16.624C18.8632 16.624 18.0577 16.9577 17.4639 17.5515C16.87 18.1454 16.5364 18.9508 16.5364 19.7907C16.5364 20.6305 16.87 21.436 17.4639 22.0299C18.0577 22.6237 18.8632 22.9574 19.703 22.9574ZM23.6614 27.3115C23.6614 26.9966 23.7865 26.6945 24.0092 26.4718C24.2319 26.2491 24.5339 26.124 24.8489 26.124H35.9322C36.2472 26.124 36.5492 26.2491 36.7719 26.4718C36.9946 26.6945 37.1197 26.9966 37.1197 27.3115C37.1197 27.6265 36.9946 27.9285 36.7719 28.1512C36.5492 28.3739 36.2472 28.499 35.9322 28.499H24.8489C24.5339 28.499 24.2319 28.3739 24.0092 28.1512C23.7865 27.9285 23.6614 27.6265 23.6614 27.3115ZM29.5989 31.6657C29.2839 31.6657 28.9819 31.7908 28.7592 32.0135C28.5365 32.2362 28.4114 32.5382 28.4114 32.8532C28.4114 33.1681 28.5365 33.4702 28.7592 33.6929C28.9819 33.9156 29.2839 34.0407 29.5989 34.0407H35.9322C36.2472 34.0407 36.5492 33.9156 36.7719 33.6929C36.9946 33.4702 37.1197 33.1681 37.1197 32.8532C37.1197 32.5382 36.9946 32.2362 36.7719 32.0135C36.5492 31.7908 36.2472 31.6657 35.9322 31.6657H29.5989Z" fill="#FE4A23"/>
</svg>
