<svg width="41" height="45" viewBox="0 0 41 45" fill="none" xmlns="http://www.w3.org/2000/svg">
<path d="M15.3138 1.72064C11.3354 4.16353 9.7999 10.7244 11.9636 15.9592L12.9408 18.3323L10.2885 19.5188C6.24026 21.3335 4.91412 23.1482 2.61083 29.9883C0.0283517 37.7358 -0.111242 40.9464 2.26185 43.2497L3.93697 44.9946H20.2694H36.6019L38.4864 43.2497C40.9293 41.0162 40.8595 37.9452 38.1374 29.8487C36.4623 24.8234 35.4851 22.9389 33.6006 21.2637C32.2745 20.147 30.5993 19.1698 29.9014 19.1698C27.9471 19.1698 27.8075 18.6115 28.9242 15.4706C30.1806 11.911 29.7618 6.8158 28.0169 4.16353C25.5042 0.324705 19.5714 -0.86184 15.3138 1.72064ZM24.3176 5.14068C25.4344 6.25743 26.3417 7.86275 26.3417 8.63052C26.3417 10.7244 25.7136 10.4452 24.876 8.00235C23.8988 5.35007 22.6425 5.35007 20.1996 7.93255C19.1527 9.0493 17.4775 10.166 16.4306 10.3754C14.6159 10.7942 14.4763 10.6546 14.4763 8.77011C14.4763 6.32723 17.8963 3.11658 20.5486 3.11658C21.5258 3.11658 23.1311 4.02393 24.3176 5.14068ZM25.5042 13.5861C26.5511 14.2143 26.4115 14.4934 24.3874 16.378C21.456 19.1 19.1527 19.1 16.3608 16.2384L14.1273 14.0049L16.7796 13.4465C18.2453 13.1673 20.1298 12.4693 20.8976 11.911C22.1539 11.0036 22.5029 11.0036 23.3405 11.8412C23.8988 12.3995 24.876 13.1673 25.5042 13.5861ZM28.7148 22.2409C31.9953 23.6368 33.6006 26.0099 35.6945 32.85C37.4394 38.4337 37.5092 38.9223 36.4623 40.5276C35.9039 41.435 34.7871 42.2028 34.0892 42.2028C32.9026 42.2028 32.763 41.5048 32.4838 35.3627C32.3443 30.8259 31.9255 28.034 31.2973 27.336C30.5295 26.3589 28.8544 26.1495 20.8278 26.1495C8.33417 26.1495 8.61335 25.9401 8.33417 35.1533C8.19457 39.0619 7.77579 42.2028 7.35701 42.2028C6.17047 42.2028 4.14636 40.8766 3.72758 39.6901C3.51819 39.0619 4.14636 35.9211 5.12351 32.7104C7.07782 26.1495 9.93949 22.2409 12.9408 21.7523C17.5473 21.0543 26.5511 21.3335 28.7148 22.2409ZM28.994 35.7815L29.2034 42.2028H20.409H11.6844V36.0606C11.6844 32.6406 11.8938 29.6393 12.173 29.3602C12.4522 29.1508 16.291 29.0112 20.6882 29.081L28.7846 29.2904L28.994 35.7815Z" fill="white"/>
</svg>
