<svg width="41" height="48" viewBox="0 0 41 48" fill="none" xmlns="http://www.w3.org/2000/svg">
<path d="M15.073 1.15384C14.4924 1.66997 14.0408 2.44416 14.0408 2.76674C14.0408 3.08932 13.0731 3.34739 11.9118 3.34739C10.7505 3.34739 9.20209 3.799 8.4279 4.31512C7.26661 5.15384 5.52468 5.66996 3.52468 5.86351C3.26662 5.92802 2.49243 6.50867 1.78275 7.21835C0.556948 8.44415 0.492432 9.34737 0.492432 26.5731C0.492432 43.7989 0.556948 44.7021 1.78275 45.9279C3.00856 47.1537 3.91178 47.2183 17.5247 47.2183C33.7827 47.2183 34.3633 47.0892 35.1375 42.5731C35.4601 40.3151 35.3956 40.1215 33.9117 40.1215C32.6214 40.1215 32.1698 40.5086 31.8472 42.057L31.4601 43.9925L17.7827 43.8634L4.04081 43.6699V26.5731V9.47641L5.71823 9.28286C6.62145 9.15383 7.71822 9.54092 8.23435 10.057C9.39564 11.5409 25.4601 11.5409 27.3311 10.1216C28.944 8.89576 31.202 8.89576 31.7182 10.1861C31.9117 10.7667 32.1053 13.6699 32.1053 16.7022C32.1053 21.9925 32.1698 22.1215 33.5891 21.928C34.944 21.7344 35.0085 21.4119 35.202 15.4764C35.2666 11.8635 35.073 8.57318 34.6859 7.86351C34.2988 7.21835 32.8149 6.25061 31.2666 5.86351C29.7827 5.4119 27.9762 4.63771 27.2666 4.1861C26.5569 3.73448 25.073 3.34739 23.9763 3.34739C22.4924 3.34739 21.6537 2.89577 20.8795 1.73449C19.6537 -0.136478 16.6214 -0.459057 15.073 1.15384ZM18.5569 3.66997C18.5569 4.1861 18.1053 4.63771 17.5892 4.63771C17.073 4.63771 16.6214 4.1861 16.6214 3.66997C16.6214 3.15384 17.073 2.70222 17.5892 2.70222C18.1053 2.70222 18.5569 3.15384 18.5569 3.66997Z" fill="white"/>
<path d="M7.78269 14.7668C6.6214 15.2184 6.75043 16.7023 7.97624 17.1539C9.26656 17.67 26.5568 17.67 27.8472 17.1539C29.202 16.6378 29.202 15.2184 27.8472 14.7023C26.6214 14.2507 8.94398 14.2507 7.78269 14.7668Z" fill="white"/>
<path d="M7.07297 19.928C7.26651 20.9602 8.29877 21.0892 16.6213 21.2828C26.8149 21.4763 28.8794 21.2183 28.8794 19.7989C28.8794 18.9602 27.1374 18.8312 17.8471 18.8312C7.71813 18.8312 6.87942 18.8957 7.07297 19.928Z" fill="white"/>
<path d="M35.3311 26.5086C33.2021 29.2828 32.2989 30.057 31.9118 29.4119C31.6537 28.8957 30.815 28.5086 30.1698 28.5086C29.4601 28.5086 28.8795 28.1861 28.8795 27.8635C28.8795 27.4764 29.8472 27.2183 31.0085 27.2183C32.944 27.2183 35.3311 25.6699 35.3311 24.4441C35.3311 24.1861 33.3311 23.9925 30.815 23.9925C25.3311 23.9925 25.0085 24.4441 25.0085 31.3473C25.0085 37.6699 25.5247 38.186 31.8472 38.186C38.6214 38.186 39.2021 37.7344 39.2021 33.0248C39.2021 30.8957 39.0085 29.1538 38.815 29.1538C38.0408 29.1538 36.0408 32.057 35.9763 33.1538C35.9763 33.928 35.4601 34.3151 34.3634 34.3151C32.815 34.3151 32.944 34.057 36.6214 29.6054C38.7505 26.9603 40.4924 24.3796 40.4924 23.799C40.4924 21.6054 38.1698 22.8312 35.3311 26.5086ZM30.4279 32.7022C31.4601 34.2506 31.4601 34.3151 30.1698 34.3151C29.2021 34.3151 28.8795 33.8635 28.8795 32.7022C28.8795 31.799 29.0085 31.0893 29.1376 31.0893C29.2666 31.0893 29.8472 31.799 30.4279 32.7022Z" fill="white"/>
<path d="M7.07298 36.702C7.26653 37.6697 8.04072 37.8633 12.4278 37.8633C16.8149 37.8633 17.5891 37.6697 17.7826 36.702C17.9762 35.7343 17.3955 35.6052 12.4278 35.6052C7.46007 35.6052 6.87943 35.7343 7.07298 36.702Z" fill="white"/>
</svg>
