<svg width="45" height="51" viewBox="0 0 45 51" fill="none" xmlns="http://www.w3.org/2000/svg">
<path d="M20.7728 2.08032C19.3626 5.99058 18.6574 10.4137 19.3626 11.1188C20.4523 12.2085 21.2856 10.9906 22.3113 7.01622C23.5292 2.52904 23.5292 0.670066 22.3113 0.670066C21.7344 0.670066 21.0933 1.31109 20.7728 2.08032Z" fill="white"/>
<path d="M13.5292 3.74701C12.5036 4.32393 11.7344 5.28547 11.7344 5.86239C11.7344 7.01624 14.2985 9.00342 15.8369 9.00342C17.3754 9.00342 17.76 7.59316 16.478 6.63162C15.3241 5.79829 15.3241 5.67008 16.3498 5.09316C17.5036 4.45214 17.2472 2.59316 15.9651 2.59316C15.5805 2.59316 14.4908 3.10598 13.5292 3.74701Z" fill="white"/>
<path d="M25.196 3.4906C25.196 3.93932 25.6448 4.70855 26.2217 5.22137C27.1191 5.9265 27.1191 6.0547 26.2217 6.56752C24.8755 7.33675 24.8755 9.00342 26.2217 9.00342C27.696 9.00342 30.9653 6.95214 30.9653 6.0547C30.9653 5.02906 27.5678 2.59316 26.2217 2.59316C25.6448 2.59316 25.196 2.97778 25.196 3.4906Z" fill="white"/>
<path d="M17.119 15.4776C16.0934 15.7981 14.4908 16.7597 13.5934 17.7212C12.2473 19.1315 12.0549 19.9648 12.0549 23.8109V28.234H10.0037C6.73443 28.234 4.74725 29.2597 4.29853 31.2468C4.10623 32.2084 3.20879 34.452 2.37546 36.2468C1.34982 38.4904 0.70879 41.1827 0.45238 45.0289L0.00366211 50.6699H22.2473H44.4267V48.5545C44.4267 45.9904 42.8242 44.2597 40.3883 44.2597C38.9139 44.2597 38.6575 44.0033 38.6575 42.4648C38.6575 39.6443 37.4396 36.1186 35.837 34.1956C35.0037 33.234 34.1062 31.7597 33.9139 30.9263C33.337 29.1956 31.2216 28.234 28.0806 28.234C25.9652 28.234 25.9011 28.1699 26.2857 26.1186C26.478 25.0289 26.6703 23.9392 26.6062 23.7468C26.5421 20.5417 26.2216 19.5802 24.4267 17.7212C22.0549 15.2853 20.0678 14.6443 17.119 15.4776ZM22.0549 19.1956C23.4652 20.6699 23.9139 21.6956 23.9139 23.5545C23.9139 27.0802 22.8883 28.1058 19.1703 28.2981C16.478 28.4904 15.9652 28.2981 15.196 26.952C13.7216 24.1956 14.1062 21.3109 16.1575 19.1956C17.1831 18.1699 18.5293 17.3366 19.1062 17.3366C19.6832 17.3366 21.0293 18.1699 22.0549 19.1956ZM31.3498 33.0417C31.0293 34.3238 31.2216 34.7725 32.4396 35.2212C33.2729 35.5417 34.3626 36.7597 34.8755 37.9776C36.0293 40.6699 36.0934 47.5289 35.0037 47.9135C34.4908 48.1058 34.1703 47.593 34.1703 46.6315C34.1703 44.2597 32.8883 41.0545 31.8626 41.0545C31.4139 41.0545 30.837 41.7597 30.5806 42.6571L30.196 44.2597H19.1062H8.01648L7.63187 41.1827C7.24725 38.0417 7.05494 34.5161 7.18315 32.5289C7.24725 31.5033 8.27289 31.4392 19.4908 31.4392H31.7344L31.3498 33.0417ZM4.55494 44.5161C4.23443 44.9007 4.04212 45.7981 4.04212 46.6315C4.04212 47.4648 3.72161 48.1058 3.337 48.1058C2.69597 48.1058 3.01648 42.593 3.91392 39.1315C4.23443 37.8494 4.36264 38.1699 4.68315 40.734C4.87546 42.4648 4.81135 44.1956 4.55494 44.5161ZM31.6062 47.4648C31.6062 47.8494 26.9908 48.1058 19.1062 48.1058C11.2216 48.1058 6.60623 47.8494 6.60623 47.4648C6.60623 47.0802 11.2216 46.8238 19.1062 46.8238C26.9908 46.8238 31.6062 47.0802 31.6062 47.4648ZM41.5421 47.4648C41.7985 47.8494 41.2216 48.1058 40.2601 48.1058C39.2985 48.1058 38.7216 47.8494 38.978 47.4648C39.1703 47.0802 39.7473 46.8238 40.2601 46.8238C40.7729 46.8238 41.3498 47.0802 41.5421 47.4648Z" fill="white"/>
<path d="M17.696 37.016C16.478 37.4647 16.6703 39.0031 18.0806 39.4519C20.5806 40.2211 22.696 37.8493 20.3242 36.9519C19.1703 36.5031 18.8498 36.5031 17.696 37.016Z" fill="white"/>
<path d="M30.9651 38.1698C30.9651 38.6826 31.542 39.1313 32.2471 39.1313C32.9523 39.1313 33.5292 38.6826 33.5292 38.1698C33.5292 37.657 32.9523 37.2083 32.2471 37.2083C31.542 37.2083 30.9651 37.657 30.9651 38.1698Z" fill="white"/>
</svg>
