<svg width="48" height="48" viewBox="0 0 48 48" fill="none" xmlns="http://www.w3.org/2000/svg">
<path d="M41.2524 3.10742H23.6274C22.8486 3.1082 22.1019 3.41793 21.5512 3.96865C21.0005 4.51937 20.6907 5.26609 20.6899 6.04492V20.7324H6.00244C5.22361 20.7332 4.47689 21.0429 3.92617 21.5937C3.37545 22.1444 3.06572 22.8911 3.06494 23.6699V44.2324H44.1899V6.04492C44.1892 5.26609 43.8794 4.51937 43.3287 3.96865C42.778 3.41793 42.0313 3.1082 41.2524 3.10742ZM13.3462 41.2949V31.0137H19.2212V41.2949H13.3462ZM41.2524 41.2949H22.1587V29.5449C22.1587 29.1554 22.0039 28.7818 21.7285 28.5064C21.4531 28.2309 21.0795 28.0762 20.6899 28.0762H11.8774C11.4879 28.0762 11.1143 28.2309 10.8389 28.5064C10.5634 28.7818 10.4087 29.1554 10.4087 29.5449V41.2949H6.00244V23.6699H23.6274V6.04492H41.2524V41.2949Z" fill="white"/>
<path d="M26.5649 11.9199H29.5024V14.8574H26.5649V11.9199ZM35.3774 11.9199H38.3149V14.8574H35.3774V11.9199ZM26.5649 20.7324H29.5024V23.6699H26.5649V20.7324ZM35.3774 20.7324H38.3149V23.6699H35.3774V20.7324ZM26.5649 29.5449H29.5024V32.4824H26.5649V29.5449ZM35.3774 29.5449H38.3149V32.4824H35.3774V29.5449ZM13.3462 17.7949H10.4087C10.411 15.848 11.1855 13.9814 12.5622 12.6047C13.9389 11.228 15.8055 10.4535 17.7524 10.4512V13.3887C16.5842 13.3898 15.4641 13.8544 14.638 14.6805C13.812 15.5066 13.3474 16.6267 13.3462 17.7949ZM6.00244 17.7949H3.06494C3.06922 13.9009 4.61802 10.1675 7.37153 7.41401C10.125 4.6605 13.8584 3.1117 17.7524 3.10742V6.04492C14.6373 6.04881 11.6509 7.288 9.44823 9.49071C7.24552 11.6934 6.00633 14.6798 6.00244 17.7949Z" fill="white"/>
</svg>
