<svg width="24" height="24" viewBox="0 0 24 24" fill="none" xmlns="http://www.w3.org/2000/svg">
<path d="M12 14.1699C9.87 14.1699 8.13 12.4399 8.13 10.2999C8.13 8.15994 9.87 6.43994 12 6.43994C14.13 6.43994 15.87 8.16994 15.87 10.3099C15.87 12.4499 14.13 14.1699 12 14.1699ZM12 7.93994C10.7 7.93994 9.63 8.99994 9.63 10.3099C9.63 11.6199 10.69 12.6799 12 12.6799C13.31 12.6799 14.37 11.6199 14.37 10.3099C14.37 8.99994 13.3 7.93994 12 7.93994Z" fill="white"/>
<path d="M12 22.76C10.52 22.76 9.03 22.2 7.87 21.09C4.92 18.25 1.66 13.72 2.89 8.33C4 3.44 8.27 1.25 12 1.25C12 1.25 12 1.25 12.01 1.25C15.74 1.25 20.01 3.44 21.12 8.34C22.34 13.73 19.08 18.25 16.13 21.09C14.97 22.2 13.48 22.76 12 22.76ZM12 2.75C9.09 2.75 5.35 4.3 4.36 8.66C3.28 13.37 6.24 17.43 8.92 20C10.65 21.67 13.36 21.67 15.09 20C17.76 17.43 20.72 13.37 19.66 8.66C18.66 4.3 14.91 2.75 12 2.75Z" fill="white"/>
</svg>
