<svg width="13" height="17" viewBox="0 0 13 17" fill="none" xmlns="http://www.w3.org/2000/svg">
<path d="M1.52381 16.9033C1.10476 16.9033 0.746159 16.7542 0.448 16.4561C0.149333 16.1574 0 15.7986 0 15.3795V7.76046C0 7.34142 0.149333 6.98256 0.448 6.68389C0.746159 6.38573 1.10476 6.23665 1.52381 6.23665H2.28571V4.71284C2.28571 3.65888 2.65727 2.76034 3.40038 2.01723C4.14298 1.27462 5.04127 0.90332 6.09524 0.90332C7.14921 0.90332 8.04775 1.27462 8.79086 2.01723C9.53346 2.76034 9.90476 3.65888 9.90476 4.71284V6.23665H10.6667C11.0857 6.23665 11.4446 6.38573 11.7432 6.68389C12.0414 6.98256 12.1905 7.34142 12.1905 7.76046V15.3795C12.1905 15.7986 12.0414 16.1574 11.7432 16.4561C11.4446 16.7542 11.0857 16.9033 10.6667 16.9033H1.52381ZM1.52381 15.3795H10.6667V7.76046H1.52381V15.3795ZM6.09524 13.0938C6.51429 13.0938 6.87314 12.9447 7.17181 12.6466C7.46997 12.3479 7.61905 11.989 7.61905 11.57C7.61905 11.1509 7.46997 10.7921 7.17181 10.4934C6.87314 10.1953 6.51429 10.0462 6.09524 10.0462C5.67619 10.0462 5.31759 10.1953 5.01943 10.4934C4.72076 10.7921 4.57143 11.1509 4.57143 11.57C4.57143 11.989 4.72076 12.3479 5.01943 12.6466C5.31759 12.9447 5.67619 13.0938 6.09524 13.0938ZM3.80952 6.23665H8.38095V4.71284C8.38095 4.07792 8.15873 3.53824 7.71429 3.0938C7.26984 2.64935 6.73016 2.42713 6.09524 2.42713C5.46032 2.42713 4.92064 2.64935 4.47619 3.0938C4.03175 3.53824 3.80952 4.07792 3.80952 4.71284V6.23665ZM1.52381 15.3795V7.76046V15.3795Z" fill="#5F5F5F"/>
</svg>
