<svg width="25" height="16" viewBox="0 0 25 16" fill="none" xmlns="http://www.w3.org/2000/svg">
<path d="M22.935 0.682617H1.84616C1.41592 0.682617 1.0033 0.853529 0.699076 1.15776C0.39485 1.46198 0.223938 1.8746 0.223938 2.30484V13.6604C0.223938 14.0906 0.39485 14.5033 0.699076 14.8075C1.0033 15.1117 1.41592 15.2826 1.84616 15.2826H22.935C23.3653 15.2826 23.7779 15.1117 24.0821 14.8075C24.3864 14.5033 24.5573 14.0906 24.5573 13.6604V2.30484C24.5573 1.8746 24.3864 1.46198 24.0821 1.15776C23.7779 0.853529 23.3653 0.682617 22.935 0.682617ZM7.8281 13.6604L1.84616 8.42873V7.53651L7.8281 2.30484H16.9531L22.935 7.53651V8.42873L16.9531 13.6604H7.8281ZM22.935 5.38706L19.4169 2.30484H22.935V5.38706ZM5.36435 2.30484L1.84616 5.38706V2.30484H5.36435ZM1.84616 10.5782L5.36435 13.6604H1.84616V10.5782ZM22.935 13.6604H19.4169L22.935 10.5782V13.6604ZM12.3906 3.92706C11.5885 3.92706 10.8044 4.16492 10.1375 4.61055C9.47052 5.05618 8.95071 5.68957 8.64376 6.43062C8.3368 7.17168 8.25649 7.98712 8.41297 8.77382C8.56946 9.56052 8.95571 10.2831 9.52289 10.8503C10.0901 11.4175 10.8127 11.8038 11.5994 11.9602C12.3861 12.1167 13.2015 12.0364 13.9426 11.7295C14.6837 11.4225 15.317 10.9027 15.7627 10.2358C16.2083 9.56883 16.4462 8.78473 16.4462 7.98262C16.4462 6.90702 16.0189 5.87547 15.2583 5.11491C14.4978 4.35434 13.4662 3.92706 12.3906 3.92706ZM12.3906 10.416C11.9093 10.416 11.4389 10.2732 11.0387 10.0059C10.6386 9.73848 10.3267 9.35845 10.1425 8.91381C9.95832 8.46918 9.91014 7.97992 10.004 7.5079C10.0979 7.03588 10.3297 6.6023 10.67 6.26199C11.0103 5.92168 11.4439 5.68993 11.9159 5.59604C12.3879 5.50215 12.8772 5.55034 13.3218 5.73451C13.7664 5.91868 14.1465 6.23057 14.4138 6.63073C14.6812 7.03089 14.8239 7.50135 14.8239 7.98262C14.8213 8.62716 14.564 9.24453 14.1083 9.7003C13.6525 10.1561 13.0351 10.4133 12.3906 10.416Z" fill="#9D9D9D"/>
</svg>
