<svg width="26" height="16" viewBox="0 0 26 16" fill="none" xmlns="http://www.w3.org/2000/svg">
<path d="M24.1751 0.612305H2.36518C1.92023 0.612305 1.49351 0.78906 1.17888 1.10369C0.864255 1.41831 0.6875 1.84504 0.6875 2.28999V14.0338C0.6875 14.4787 0.864255 14.9054 1.17888 15.2201C1.49351 15.5347 1.92023 15.7115 2.36518 15.7115H24.1751C24.62 15.7115 25.0467 15.5347 25.3614 15.2201C25.676 14.9054 25.8527 14.4787 25.8527 14.0338V2.28999C25.8527 1.84504 25.676 1.41831 25.3614 1.10369C25.0467 0.78906 24.62 0.612305 24.1751 0.612305ZM8.55164 14.0338L2.36518 8.62324V7.70051L8.55164 2.28999H17.9886L24.1751 7.70051V8.62324L17.9886 14.0338H8.55164ZM24.1751 5.47759L20.5366 2.28999H24.1751V5.47759ZM6.00366 2.28999L2.36518 5.47759V2.28999H6.00366ZM2.36518 10.8462L6.00366 14.0338H2.36518V10.8462ZM24.1751 14.0338H20.5366L24.1751 10.8462V14.0338ZM13.2701 3.96767C12.4406 3.96767 11.6297 4.21366 10.9399 4.67452C10.2502 5.13539 9.71263 5.79043 9.39518 6.55682C9.07773 7.32322 8.99467 8.16653 9.1565 8.98013C9.31834 9.79372 9.7178 10.5411 10.3044 11.1276C10.8909 11.7142 11.6383 12.1137 12.4519 12.2755C13.2655 12.4373 14.1088 12.3543 14.8752 12.0368C15.6416 11.7194 16.2966 11.1818 16.7575 10.4921C17.2183 9.80232 17.4643 8.99141 17.4643 8.16188C17.4643 7.0495 17.0224 5.98269 16.2359 5.19613C15.4493 4.40956 14.3825 3.96767 13.2701 3.96767ZM13.2701 10.6784C12.7724 10.6784 12.2859 10.5308 11.872 10.2543C11.4582 9.97777 11.1356 9.58474 10.9452 9.12491C10.7547 8.66508 10.7048 8.15909 10.8019 7.67093C10.8991 7.18277 11.1387 6.73437 11.4907 6.38243C11.8426 6.03048 12.291 5.79081 12.7792 5.69371C13.2673 5.59661 13.7733 5.64644 14.2332 5.83691C14.693 6.02738 15.086 6.34993 15.3625 6.76377C15.6391 7.17761 15.7866 7.66416 15.7866 8.16188C15.7839 8.82845 15.5179 9.46694 15.0465 9.93828C14.5752 10.4096 13.9367 10.6756 13.2701 10.6784Z" fill="#FE4A23"/>
</svg>
