<svg width="16" height="16" viewBox="0 0 16 16" fill="none" xmlns="http://www.w3.org/2000/svg">
<path d="M6.72933 0.484375H1.72933C1.50832 0.484375 1.29635 0.572172 1.14007 0.728453C0.983793 0.884733 0.895996 1.09669 0.895996 1.31771V6.31771C0.895996 6.53872 0.983793 6.75068 1.14007 6.90696C1.29635 7.06324 1.50832 7.15104 1.72933 7.15104H6.72933C6.95034 7.15104 7.1623 7.06324 7.31858 6.90696C7.47486 6.75068 7.56266 6.53872 7.56266 6.31771V1.31771C7.56266 1.09669 7.47486 0.884733 7.31858 0.728453C7.1623 0.572172 6.95034 0.484375 6.72933 0.484375ZM5.896 5.48438H2.56266V2.15104H5.896V5.48438ZM15.0627 0.484375H10.0627C9.84165 0.484375 9.62969 0.572172 9.47341 0.728453C9.31713 0.884733 9.22933 1.09669 9.22933 1.31771V6.31771C9.22933 6.53872 9.31713 6.75068 9.47341 6.90696C9.62969 7.06324 9.84165 7.15104 10.0627 7.15104H15.0627C15.2837 7.15104 15.4956 7.06324 15.6519 6.90696C15.8082 6.75068 15.896 6.53872 15.896 6.31771V1.31771C15.896 1.09669 15.8082 0.884733 15.6519 0.728453C15.4956 0.572172 15.2837 0.484375 15.0627 0.484375ZM14.2293 5.48438H10.896V2.15104H14.2293V5.48438ZM6.72933 8.81771H1.72933C1.50832 8.81771 1.29635 8.90551 1.14007 9.06179C0.983793 9.21807 0.895996 9.43003 0.895996 9.65104V14.651C0.895996 14.8721 0.983793 15.084 1.14007 15.2403C1.29635 15.3966 1.50832 15.4844 1.72933 15.4844H6.72933C6.95034 15.4844 7.1623 15.3966 7.31858 15.2403C7.47486 15.084 7.56266 14.8721 7.56266 14.651V9.65104C7.56266 9.43003 7.47486 9.21807 7.31858 9.06179C7.1623 8.90551 6.95034 8.81771 6.72933 8.81771ZM5.896 13.8177H2.56266V10.4844H5.896V13.8177ZM12.5627 8.81771C10.7243 8.81771 9.22933 10.3127 9.22933 12.151C9.22933 13.9894 10.7243 15.4844 12.5627 15.4844C14.401 15.4844 15.896 13.9894 15.896 12.151C15.896 10.3127 14.401 8.81771 12.5627 8.81771ZM12.5627 13.8177C11.6435 13.8177 10.896 13.0702 10.896 12.151C10.896 11.2319 11.6435 10.4844 12.5627 10.4844C13.4818 10.4844 14.2293 11.2319 14.2293 12.151C14.2293 13.0702 13.4818 13.8177 12.5627 13.8177Z" fill="white"/>
</svg>
