<svg width="21" height="21" viewBox="0 0 21 21" fill="none" xmlns="http://www.w3.org/2000/svg">
<path d="M10.5002 0.083252C9.13223 0.083252 7.77768 0.352687 6.51388 0.876174C5.25007 1.39966 4.10174 2.16695 3.13447 3.13422C1.18096 5.08773 0.0834961 7.73725 0.0834961 10.4999C0.0834961 13.2626 1.18096 15.9121 3.13447 17.8656C4.10174 18.8329 5.25007 19.6002 6.51388 20.1237C7.77768 20.6472 9.13223 20.9166 10.5002 20.9166C13.2628 20.9166 15.9124 19.8191 17.8659 17.8656C19.8194 15.9121 20.9168 13.2626 20.9168 10.4999C20.9168 9.13198 20.6474 7.77744 20.1239 6.51363C19.6004 5.24982 18.8331 4.1015 17.8659 3.13422C16.8986 2.16695 15.7503 1.39966 14.4864 0.876174C13.2226 0.352687 11.8681 0.083252 10.5002 0.083252ZM5.36475 17.0416C5.81266 16.1041 8.54183 15.1874 10.5002 15.1874C12.4585 15.1874 15.1877 16.1041 15.6356 17.0416C14.1766 18.2041 12.3657 18.8359 10.5002 18.8333C8.56266 18.8333 6.78141 18.1666 5.36475 17.0416ZM17.1252 15.5312C15.6356 13.7187 12.021 13.1041 10.5002 13.1041C8.97933 13.1041 5.36475 13.7187 3.87516 15.5312C2.76702 14.0881 2.16648 12.3194 2.16683 10.4999C2.16683 5.90617 5.90641 2.16659 10.5002 2.16659C15.0939 2.16659 18.8335 5.90617 18.8335 10.4999C18.8335 12.3958 18.1877 14.1458 17.1252 15.5312ZM10.5002 4.24992C8.47933 4.24992 6.85433 5.87492 6.85433 7.89575C6.85433 9.91659 8.47933 11.5416 10.5002 11.5416C12.521 11.5416 14.146 9.91659 14.146 7.89575C14.146 5.87492 12.521 4.24992 10.5002 4.24992ZM10.5002 9.45825C10.0858 9.45825 9.68833 9.29363 9.39531 9.00061C9.10228 8.70758 8.93766 8.31015 8.93766 7.89575C8.93766 7.48135 9.10228 7.08392 9.39531 6.7909C9.68833 6.49787 10.0858 6.33325 10.5002 6.33325C10.9146 6.33325 11.312 6.49787 11.605 6.7909C11.898 7.08392 12.0627 7.48135 12.0627 7.89575C12.0627 8.31015 11.898 8.70758 11.605 9.00061C11.312 9.29363 10.9146 9.45825 10.5002 9.45825Z" fill="#5F5F5F"/>
</svg>
