<svg width="20" height="20" viewBox="0 0 20 20" fill="none" xmlns="http://www.w3.org/2000/svg">
<path d="M5.7269 15.7115C4.6345 15.0173 3.76829 14.1622 3.09171 13.1156C2.41612 12.071 2.06746 10.9105 1.85708 9.68033C1.66152 9.69113 1.50349 9.69996 1.35237 9.7088C1.10248 11.6203 3.59544 15.5249 5.47603 16.1739C5.5501 16.0374 5.62616 15.898 5.7269 15.7115ZM14.6785 16.2161C17.0252 14.6354 18.3557 12.5148 18.7794 9.77753C18.5611 9.74022 18.3932 9.71076 18.1809 9.67444C17.8243 12.2752 16.5393 14.2564 14.3644 15.6987C14.4691 15.8734 14.5589 16.0217 14.6785 16.2161ZM13.2088 18.2062C13.2088 18.4153 13.2088 18.5842 13.2088 18.7717C13.4093 18.7717 13.5782 18.7717 13.7767 18.7717C13.7767 18.5753 13.7767 18.4065 13.7767 18.2062C13.591 18.2062 13.4201 18.2062 13.2088 18.2062ZM9.37153 14.7522C9.14534 14.7522 8.97842 14.7522 8.78286 14.7522C8.79273 14.9623 8.80162 15.1332 8.80953 15.3119C9.01694 15.3119 9.18683 15.3119 9.37054 15.3119C9.37153 15.1096 9.37153 14.9388 9.37153 14.7522ZM13.7796 17.516C13.7796 17.3265 13.7796 17.1596 13.7796 16.9662C13.5772 16.9662 13.3964 16.9662 13.2078 16.9662C13.2078 17.1684 13.2078 17.3363 13.2078 17.516C13.4102 17.516 13.5811 17.516 13.7796 17.516ZM13.7727 19.4373C13.5703 19.4373 13.3984 19.4373 13.2078 19.4373C13.2078 19.6347 13.2078 19.8055 13.2078 19.992C13.4093 19.992 13.5821 19.992 13.7727 19.992C13.7727 19.7918 13.7727 19.6209 13.7727 19.4373ZM6.84103 18.2189C6.62176 18.2189 6.44101 18.2189 6.23557 18.2189C6.24742 18.432 6.25631 18.6009 6.26619 18.7658C6.48447 18.7658 6.65337 18.7658 6.84103 18.7658C6.84103 18.5743 6.84103 18.4173 6.84103 18.2189ZM6.26915 16.9544C6.26915 17.1596 6.26915 17.3294 6.26915 17.5111C6.47064 17.5111 6.6425 17.5111 6.82918 17.5111C6.82918 17.3137 6.82918 17.1449 6.82918 16.9544C6.63757 16.9544 6.47756 16.9544 6.26915 16.9544ZM6.26421 19.992C6.46768 19.992 6.63855 19.992 6.82819 19.992C6.82819 19.7937 6.82819 19.6239 6.82819 19.4393C6.62868 19.4393 6.4578 19.4393 6.26421 19.4393C6.26421 19.6239 6.26421 19.7819 6.26421 19.992Z" fill="#131135"/>
<path d="M6.02007 9.04611C4.56518 9.04611 2.95523 9.04611 1.34527 9.04611C0.563998 9.04611 0.0138478 8.5611 1.99198e-05 7.86109C-0.0138079 7.1218 0.516589 6.61127 1.32255 6.60244C3.21499 6.58182 5.10743 6.56513 7.00086 6.55433C7.29223 6.55236 7.50755 6.52978 7.64879 6.19696C7.80189 5.83664 8.12684 5.6393 8.55945 5.64421C8.68884 5.64617 8.85379 5.55094 8.94565 5.44982C9.47209 4.87547 9.9294 4.88038 10.4756 5.46553C10.5704 5.56665 10.7364 5.62654 10.8796 5.65206C11.4307 5.75319 11.9206 6.11252 12.5152 6.02809C12.5676 6.02122 12.6505 6.07031 12.6831 6.11841C13.0782 6.69178 13.6748 6.56415 14.2338 6.56905C15.501 6.58182 16.7702 6.56022 18.0345 6.61814C18.8247 6.65447 19.3807 7.23569 19.9822 7.67258C20.0277 7.70597 19.9753 8.00836 19.8884 8.06334C19.0854 8.57386 18.3575 9.18552 17.267 9.10599C15.9267 9.00782 14.5726 9.08243 13.3478 9.08243C12.9804 10.4393 12.6169 11.7313 12.29 13.0322C12.2377 13.2413 12.3404 13.4916 12.3829 13.7214C12.4263 13.96 12.5271 14.1956 12.529 14.4332C12.5448 16.2328 12.5429 18.0324 12.5438 19.832C12.5438 19.8782 12.5211 19.9243 12.5014 19.995C12.3295 19.995 12.1596 19.995 11.9344 19.995C11.9344 18.0324 11.9344 16.0934 11.9344 14.1259C10.6524 14.1259 9.42468 14.1259 8.12882 14.1259C8.12882 16.0728 8.12882 18.0246 8.12882 19.9989C7.90263 19.9989 7.74361 19.9989 7.54607 19.9989C7.53422 19.8752 7.51249 19.7515 7.5115 19.6268C7.50953 17.9578 7.49669 16.2888 7.52237 14.6207C7.52731 14.28 7.70213 13.9452 7.75744 13.6016C7.82559 13.1755 7.92535 12.7445 7.6241 12.34C7.30211 11.908 6.96135 11.476 6.73023 10.9959C6.45861 10.4265 6.29169 9.80601 6.02007 9.04611ZM6.96333 9.02942C6.909 9.06869 6.85468 9.10796 6.80036 9.14723C6.88332 9.53111 6.90209 9.94444 7.06506 10.291C7.31396 10.8182 7.62805 11.3248 7.97967 11.7922C8.28784 12.2016 8.51698 12.5992 8.42908 13.1274C8.38167 13.4102 8.5318 13.4897 8.80144 13.4857C9.62321 13.473 10.446 13.4956 11.2667 13.4661C11.3971 13.4612 11.5868 13.2874 11.6342 13.1519C11.7902 12.7082 11.8939 12.2467 12.0154 11.7912C12.1952 11.1177 12.4569 10.452 12.529 9.76674C12.6189 8.90964 12.5577 8.03683 12.5498 7.17089C12.5478 6.92544 12.6268 6.56807 12.2396 6.58476C12.1112 6.59065 11.9967 6.91857 11.8752 7.09824C11.8574 7.12376 11.8337 7.14536 11.7942 7.18954C11.647 7.18071 11.489 7.16991 11.3053 7.15813C11.2914 6.92152 11.3112 6.70454 11.2559 6.50818C11.2272 6.4051 11.0682 6.27157 10.9685 6.27255C10.8717 6.27255 10.7186 6.41001 10.6899 6.51506C10.6356 6.71043 10.6544 6.92643 10.6405 7.15911C10.4371 7.15911 10.2662 7.15911 10.0321 7.15911C10.0321 6.77523 10.038 6.41884 10.0301 6.06343C10.0252 5.8445 9.99558 5.58334 9.69531 5.65796C9.56889 5.68937 9.42567 5.91224 9.40789 6.06147C9.36641 6.42473 9.39406 6.79585 9.39406 7.16893C9.15702 7.16893 8.99898 7.16893 8.81527 7.16893C8.80342 7.00399 8.82811 6.8469 8.77576 6.72123C8.70662 6.55236 8.57822 6.40706 8.4755 6.25096C8.35796 6.41099 8.18215 6.55629 8.13672 6.73498C8.07746 6.96472 8.1219 7.22194 8.12091 7.46641C8.12091 8.09868 8.12091 8.72997 8.12091 9.46435C7.67052 9.29646 7.31692 9.16294 6.96333 9.02942ZM7.48483 8.43249C7.48483 8.0005 7.48483 7.61564 7.48483 7.219C6.23144 7.219 5.00965 7.219 3.75823 7.219C3.75823 7.63331 3.75823 8.01621 3.75823 8.43249C5.00471 8.43249 6.22848 8.43249 7.48483 8.43249ZM16.2971 7.21998C15.2353 7.21998 14.2229 7.21998 13.1819 7.21998C13.1819 7.63429 13.1819 8.01719 13.1819 8.4266C14.2299 8.4266 15.2551 8.4266 16.2971 8.4266C16.2971 8.01523 16.2971 7.64411 16.2971 7.21998ZM19.1032 7.82182C18.472 7.23765 17.7757 7.05111 16.9707 7.25336C16.9707 7.65688 16.9707 8.03585 16.9707 8.40303C17.8093 8.61019 18.4829 8.37064 19.1032 7.82182ZM1.86678 8.47078C1.86678 8.19588 1.86579 8.01817 1.86678 7.84047C1.87073 7.14831 1.81641 7.11297 1.10131 7.21703C0.737834 7.27005 0.602519 7.46445 0.598568 7.81003C0.594617 8.1517 0.707215 8.38242 1.07859 8.4158C1.31663 8.43838 1.55565 8.45016 1.86678 8.47078ZM3.07079 8.43642C3.07079 8.0113 3.07079 7.62939 3.07079 7.21998C2.8693 7.21998 2.69842 7.21998 2.50681 7.21998C2.50681 7.63233 2.50681 8.02799 2.50681 8.46096C2.71225 8.45212 2.88313 8.44427 3.07079 8.43642Z" fill="#131135"/>
<path d="M18.2703 5.72871C18.1834 5.77878 18.1311 5.81903 18.0718 5.84161C17.9671 5.88187 17.8585 5.91132 17.7528 5.9447C16.288 2.62331 13.8128 0.66759 10.1228 0.632245C6.34974 0.595919 3.80048 2.54575 2.29522 5.9447C2.16484 5.90445 2.04138 5.87008 1.92187 5.82492C1.8794 5.80921 1.84779 5.76405 1.81421 5.7346C2.62808 3.14562 5.50032 0.249348 9.56373 0.013719C13.3279 -0.20522 17.0742 2.24238 18.2703 5.72871Z" fill="#131135"/>
<path d="M5.7269 15.7115C5.62615 15.8981 5.5501 16.0375 5.47602 16.173C3.59642 15.524 1.10247 11.6185 1.35236 9.70792C1.50348 9.69908 1.66151 9.69024 1.85708 9.67944C2.06746 10.9106 2.41612 12.0701 3.09171 13.1147C3.76828 14.1633 4.6345 15.0174 5.7269 15.7115Z" fill="#131135"/>
<path d="M14.6786 16.2161C14.5601 16.0207 14.4702 15.8734 14.3635 15.6987C16.5384 14.2555 17.8244 12.2742 18.18 9.67444C18.3924 9.71076 18.5603 9.74022 18.7786 9.77753C18.3548 12.5148 17.0244 14.6354 14.6786 16.2161Z" fill="#131135"/>
<path d="M13.2087 18.2063C13.4201 18.2063 13.591 18.2063 13.7767 18.2063C13.7767 18.4066 13.7767 18.5754 13.7767 18.7718C13.5781 18.7718 13.4092 18.7718 13.2087 18.7718C13.2087 18.5843 13.2087 18.4154 13.2087 18.2063Z" fill="#131135"/>
<path d="M9.37138 14.7523C9.37138 14.9389 9.37138 15.1097 9.37138 15.3119C9.18667 15.3119 9.01778 15.3119 8.81036 15.3119C8.80147 15.1333 8.79357 14.9634 8.78369 14.7523C8.97827 14.7523 9.14519 14.7523 9.37138 14.7523Z" fill="#131135"/>
<path d="M13.7794 17.516C13.5809 17.516 13.409 17.516 13.2075 17.516C13.2075 17.3363 13.2075 17.1684 13.2075 16.9662C13.3962 16.9662 13.5769 16.9662 13.7794 16.9662C13.7794 17.1596 13.7794 17.3265 13.7794 17.516Z" fill="#131135"/>
<path d="M13.7725 19.4374C13.7725 19.621 13.7725 19.7908 13.7725 19.9921C13.5819 19.9921 13.409 19.9921 13.2075 19.9921C13.2075 19.8065 13.2075 19.6357 13.2075 19.4374C13.3981 19.4374 13.57 19.4374 13.7725 19.4374Z" fill="#131135"/>
<path d="M6.84106 18.219C6.84106 18.4183 6.84106 18.5754 6.84106 18.7658C6.65241 18.7658 6.48351 18.7658 6.26621 18.7658C6.25732 18.6009 6.24745 18.432 6.2356 18.219C6.44104 18.219 6.6208 18.219 6.84106 18.219Z" fill="#131135"/>
<path d="M6.2688 16.9545C6.47721 16.9545 6.63721 16.9545 6.82883 16.9545C6.82883 17.1449 6.82883 17.3138 6.82883 17.5111C6.64215 17.5111 6.47029 17.5111 6.2688 17.5111C6.2688 17.3295 6.2688 17.1606 6.2688 16.9545Z" fill="#131135"/>
<path d="M6.26416 19.9921C6.26416 19.782 6.26416 19.6239 6.26416 19.4393C6.45775 19.4393 6.62862 19.4393 6.82814 19.4393C6.82814 19.6239 6.82814 19.7938 6.82814 19.9921C6.6385 19.9921 6.46763 19.9921 6.26416 19.9921Z" fill="#131135"/>
</svg>
