<svg width="18" height="20" viewBox="0 0 18 20" fill="none" xmlns="http://www.w3.org/2000/svg">
<path d="M13.1974 3.69658C12.8543 4.95508 12.8543 4.95508 11.7392 4.95508C9.03726 4.95372 6.33528 4.951 3.63331 4.951C2.17376 4.951 1.2865 5.82311 1.28114 7.30202C1.27042 10.3401 1.27712 13.3769 1.27846 16.4149C1.27846 16.5673 1.2999 16.7197 1.31599 16.951C1.43527 16.8762 1.52105 16.8503 1.56394 16.7918C2.35201 15.7156 3.41752 15.4598 4.69078 15.5306C6.3393 15.6231 7.99721 15.5047 9.64574 15.5918C12.2123 15.7279 15.0202 13.6571 15.0162 10.4653C15.0148 9.71018 15.681 8.0544 16.2599 7.19318C16.3256 7.19862 16.3913 7.20406 16.4556 7.2095C16.2988 8.94964 16.3216 10.7306 15.9436 12.4204C15.3499 15.0707 12.5152 16.9333 9.66584 16.8626C7.74658 16.8149 5.82598 16.8041 3.90538 16.8245C3.59042 16.8272 3.21514 17.0027 2.97658 17.2217C2.20056 17.9374 1.47816 18.7129 0.727611 19.4571C0.566779 19.6163 0.375121 19.7442 0.0547977 20C0.0279924 19.5741 -0.000153215 19.3401 -0.000153215 19.1047C-0.000153215 15.2054 -0.00149348 11.3061 0.00118705 7.40678C0.00252732 5.08569 1.46878 3.65168 3.75125 3.67209C6.63148 3.69794 9.51305 3.68978 12.3933 3.69522C12.6546 3.69658 12.916 3.69658 13.1974 3.69658Z" fill="#131135"/>
<path d="M12.3729 10.8041C12.1625 7.23815 14.3297 4.61774 15.343 1.50073C15.9796 1.78373 16.5371 2.03134 17.1671 2.31162C16.5063 3.8191 15.8121 5.27624 15.2277 6.77556C14.6755 8.19325 13.8941 9.42046 12.7871 10.4409C12.6785 10.5429 12.5646 10.6368 12.3729 10.8041ZM13.9424 8.464C13.6395 8.33339 13.3125 8.19461 12.775 7.96468C12.8849 8.5606 12.96 8.96604 13.035 9.37012C13.3366 9.11162 13.6395 8.85176 13.9397 8.59189C13.9504 8.58373 13.9424 8.55244 13.9424 8.464Z" fill="#131135"/>
<path d="M3.7675 9.72241C6.24833 9.72241 8.71576 9.72241 11.1765 9.72241C11.2716 10.1415 11.1751 10.3374 10.7262 10.3347C8.54152 10.321 6.35555 10.3238 4.17092 10.336C3.70987 10.3401 3.6509 10.1306 3.7675 9.72241Z" fill="#131135"/>
<path d="M3.77038 12.1742C5.35189 12.1742 6.90526 12.1742 8.48543 12.1742C8.62348 12.5742 8.59935 12.8082 8.08737 12.8014C6.79535 12.7837 5.502 12.7837 4.20998 12.8028C3.78646 12.8082 3.62831 12.6626 3.77038 12.1742Z" fill="#131135"/>
<path d="M6.29492 7.62314C6.45039 7.49253 6.60318 7.25035 6.75999 7.24763C8.31872 7.21906 9.87745 7.22994 11.4375 7.22994C11.4791 7.28572 11.5206 7.34287 11.5635 7.39865C11.396 7.55239 11.2298 7.83402 11.0596 7.8381C9.52362 7.87212 7.98768 7.85851 6.45173 7.85851C6.39812 7.7796 6.34719 7.70069 6.29492 7.62314Z" fill="#131135"/>
<path d="M17.525 1.81908C16.8 1.48982 16.2612 1.24357 15.5776 0.933361C15.8457 0.572817 16.0936 -0.0108563 16.3121 2.80047e-05C16.7799 0.0231573 17.3119 0.269416 17.6564 0.598668C17.8159 0.749688 17.5934 1.31159 17.525 1.81908Z" fill="#131135"/>
<path d="M9.44474 12.17C10.4834 12.17 11.5208 12.17 12.5957 12.17C12.5957 12.3741 12.5957 12.5605 12.5957 12.7945C11.6254 12.7945 10.6952 12.8149 9.7664 12.7755C9.59485 12.7687 9.43402 12.5183 9.26782 12.3809C9.32679 12.3115 9.38577 12.2408 9.44474 12.17Z" fill="#131135"/>
<path d="M3.79975 7.23135C4.28091 7.23135 4.76474 7.21231 5.24456 7.24496C5.36518 7.25312 5.47508 7.42455 5.59035 7.52115C5.46838 7.63407 5.3558 7.82999 5.22177 7.84496C4.85186 7.88985 4.46586 7.89938 4.09863 7.84087C3.9311 7.81502 3.79305 7.59598 3.6416 7.46537C3.69521 7.38781 3.74748 7.3089 3.79975 7.23135Z" fill="#131135"/>
<path d="M13.9429 8.46404C13.9429 8.55248 13.9523 8.58241 13.9415 8.59193C13.6413 8.85316 13.3384 9.11166 13.0369 9.37016C12.9618 8.96472 12.8868 8.56064 12.7769 7.96472C13.3116 8.19465 13.6386 8.33479 13.9429 8.46404Z" fill="#131135"/>
</svg>
