<svg width="22" height="20" viewBox="0 0 22 20" fill="none" xmlns="http://www.w3.org/2000/svg">
<path d="M12.4035 16.031C11.8567 16.4928 11.3245 16.9438 10.7923 17.3947C10.4999 17.6419 10.2134 17.8919 9.91511 18.1337C9.83616 18.1961 9.73674 18.2423 9.64025 18.2831C8.2835 18.8427 6.92674 19.3969 5.56999 19.9538C5.3887 20.0272 5.25127 20.0163 5.15477 19.9185C5.05243 19.8153 5.04659 19.674 5.14308 19.5164C5.66941 18.6471 6.19866 17.7778 6.72791 16.9084C6.92674 16.5797 7.12265 16.251 7.32734 15.925C7.38582 15.8354 7.45892 15.7484 7.54079 15.6778C8.28934 15.034 9.04082 14.3955 9.7923 13.7544C9.82154 13.73 9.85371 13.7082 9.91511 13.6648C9.58469 13.3686 9.26305 13.0888 8.9531 12.8009C8.10221 12.0076 7.25423 11.2089 6.40334 10.4129C6.2045 10.2255 6.20743 10.0842 6.40919 9.9022C7.50863 8.89975 8.61099 7.89731 9.71043 6.89486C9.90341 6.721 10.0642 6.721 10.2543 6.9003C11.4005 7.98153 12.5438 9.06275 13.6871 10.1467C13.7427 10.1983 13.7982 10.2526 13.8596 10.3124C13.9708 10.2173 14.076 10.1304 14.1842 10.0407C15.2895 9.12524 16.3919 8.20701 17.5001 7.29421C18.0205 6.8677 18.6638 6.90845 19.1288 7.3893C19.427 7.69628 19.7311 8.00054 20.0235 8.31296C20.3539 8.66341 20.3802 9.20402 20.082 9.55175C19.9943 9.65498 19.8832 9.74192 19.7779 9.83157C18.6872 10.7525 17.5966 11.6707 16.5059 12.5917C16.4767 12.6161 16.4474 12.6433 16.3919 12.6922C16.4737 12.7574 16.5527 12.8172 16.6258 12.8824C17.8305 14.0179 19.0352 15.1562 20.237 16.2918C20.4446 16.4874 20.4416 16.6259 20.2282 16.8215C19.1405 17.8131 18.0498 18.8074 16.962 19.799C16.734 20.0054 16.5907 20.0027 16.3655 19.7908C15.0877 18.5846 13.8129 17.3811 12.535 16.175C12.497 16.1288 12.4561 16.0826 12.4035 16.031ZM13.421 16.1396C13.6316 16.3434 13.8713 16.577 14.117 16.8106C14.1316 16.8242 14.1462 16.8324 14.1813 16.8595C14.2076 16.8269 14.231 16.7889 14.2602 16.7617C14.5702 16.4738 14.8772 16.1831 15.1901 15.8979C15.3801 15.724 15.655 15.7783 15.7369 16.0038C15.7837 16.1342 15.731 16.2402 15.6316 16.3352C15.3246 16.6205 15.0176 16.9057 14.7105 17.191C14.6813 17.2181 14.6521 17.248 14.6287 17.2725C14.9006 17.5278 15.1667 17.7778 15.4357 18.0277C15.4591 18.006 15.4883 17.9815 15.5176 17.9544C16.0965 17.4246 16.6755 16.8976 17.2574 16.3678C17.2925 16.3379 17.3246 16.3053 17.3626 16.2782C17.4913 16.1885 17.6492 16.1994 17.7662 16.2999C17.886 16.4031 17.9094 16.558 17.8188 16.683C17.7866 16.7291 17.7398 16.7672 17.6989 16.8052C17.1199 17.335 16.541 17.862 15.9591 18.3917C15.9357 18.4135 15.9152 18.4379 15.9094 18.4461C16.1842 18.7014 16.4503 18.9487 16.7223 19.2013C17.6755 18.3347 18.6404 17.4599 19.6054 16.5824C16.3948 13.5452 13.19 10.5189 9.98236 7.4871C9.01451 8.37816 8.04957 9.26379 7.07879 10.1548C7.35365 10.4211 7.61974 10.6764 7.89168 10.94C7.92384 10.9128 7.95308 10.8911 7.97647 10.8693C8.22794 10.6411 8.47648 10.4129 8.72795 10.1847C9.07884 9.86688 9.42387 9.54632 9.77768 9.22847C9.96189 9.06275 10.228 9.10622 10.3157 9.31812C10.3771 9.4621 10.3186 9.57348 10.2075 9.67672C9.61978 10.2092 9.0379 10.7444 8.45017 11.2795C8.42093 11.3067 8.37707 11.323 8.3332 11.3502C8.61976 11.6273 8.87708 11.8745 9.13732 12.1271C9.50867 11.8039 9.8654 11.4914 10.2221 11.179C10.3888 11.035 10.5701 11.0296 10.7075 11.1627C10.842 11.2931 10.8303 11.4588 10.6754 11.6055C10.497 11.774 10.3157 11.9424 10.1344 12.1081C9.97651 12.2548 9.81862 12.3988 9.65487 12.5482C9.92388 12.809 10.1812 13.0562 10.4414 13.3089C10.7806 12.9992 11.111 12.6976 11.4385 12.3988C11.7309 12.1326 12.0233 11.8636 12.3157 11.5974C12.4853 11.4425 12.7076 11.4588 12.8304 11.63C12.9269 11.7604 12.9006 11.9044 12.7544 12.0375C12.1666 12.5754 11.5789 13.1106 10.9912 13.6485C10.959 13.6756 10.9181 13.6919 10.8771 13.7164C11.1608 13.9908 11.4181 14.2407 11.6812 14.4933C11.8801 14.3086 12.0731 14.1266 12.269 13.9473C12.4269 13.8006 12.5818 13.6512 12.7456 13.5099C12.8742 13.3985 13.0555 13.4094 13.1783 13.5181C13.3041 13.6322 13.3128 13.8006 13.1988 13.9283C13.1666 13.9663 13.1286 13.9989 13.0906 14.0315C12.7748 14.3249 12.459 14.6156 12.1374 14.9144C12.4035 15.1698 12.6608 15.4197 12.921 15.6724C12.959 15.6371 12.9883 15.6126 13.0175 15.5882C13.6082 15.0475 14.1988 14.5096 14.7895 13.969C14.9474 13.825 15.1374 13.8196 15.2749 13.9527C15.4094 14.0831 15.4006 14.2488 15.2427 14.3955C15.079 14.5477 14.9094 14.6944 14.7515 14.8492C14.307 15.2703 13.8684 15.7023 13.421 16.1396ZM16.7369 8.76121C17.2428 9.29095 17.7369 9.81255 18.2369 10.3341C18.272 10.307 18.2983 10.2852 18.3246 10.2635C18.6872 9.96197 19.0469 9.66042 19.4095 9.35887C19.6989 9.11709 19.7165 8.88074 19.4562 8.61179C19.2106 8.35914 18.9533 8.11464 18.7223 7.85113C18.4504 7.54143 18.1492 7.48438 17.8012 7.81853C17.4621 8.14181 17.0965 8.44336 16.7369 8.76121ZM7.73085 16.4602C7.21037 17.3268 6.69574 18.1826 6.18404 19.0383C6.18988 19.0437 6.19573 19.0492 6.20158 19.0546C7.16359 18.658 8.12852 18.2586 9.10515 17.8566C8.64023 17.3839 8.18993 16.9275 7.73085 16.4602ZM9.65779 17.5197C10.4151 16.8786 11.1608 16.2456 11.9093 15.6099C11.7105 15.4143 11.5175 15.2268 11.3216 15.034C10.5701 15.6615 9.82154 16.2863 9.07006 16.9139C9.2689 17.1203 9.45604 17.3159 9.65779 17.5197ZM10.3303 14.1049C9.59931 14.7243 8.86246 15.3491 8.12267 15.9766C8.30104 16.1532 8.47063 16.3189 8.64608 16.4928C9.39755 15.8653 10.1461 15.2404 10.8888 14.621C10.6958 14.4417 10.5145 14.276 10.3303 14.1049ZM16.1813 9.185C15.5644 9.7066 14.962 10.2173 14.3538 10.7308C14.5409 10.9155 14.7222 11.0921 14.9094 11.2768C15.5205 10.7607 16.1258 10.2472 16.7369 9.73105C16.5498 9.54632 16.3685 9.36974 16.1813 9.185ZM15.9649 12.2358C16.5556 11.7387 17.1492 11.2361 17.7486 10.7281C17.5556 10.5406 17.3773 10.364 17.193 10.182C16.579 10.69 15.9766 11.1926 15.3772 11.687C15.576 11.8772 15.7661 12.0538 15.9649 12.2358Z" fill="#131135"/>
<path d="M20.8805 5.67237C14.1289 5.67237 7.39489 5.67237 0.649136 5.67237C0.649136 5.72399 0.649136 5.77017 0.649136 5.81635C0.649136 8.62537 0.649136 11.4344 0.649136 14.2407C0.649136 14.6455 0.77487 14.7623 1.20763 14.7623C3.1989 14.7623 5.19017 14.7623 7.18143 14.7623C7.2253 14.7623 7.26916 14.7623 7.31302 14.7623C7.50893 14.7704 7.62589 14.8791 7.62881 15.0557C7.63174 15.2377 7.51478 15.3545 7.31886 15.3654C7.2984 15.3654 7.27793 15.3654 7.26038 15.3654C5.20479 15.3654 3.14919 15.3654 1.09651 15.3654C0.596504 15.3654 0.178366 15.0883 0.0467846 14.6699C0.0175442 14.5721 0.00292404 14.4662 0.00292404 14.3629C0 9.79897 0 5.23227 0 0.668297C0 0.255365 0.271935 0.00271665 0.713465 0C3.01468 0 5.31882 0 7.62004 0C8.29842 0 8.85691 0.239065 9.31013 0.700896C9.32768 0.719913 9.3423 0.744363 9.35692 0.766096C9.64932 1.18446 9.94757 1.60011 10.2371 2.02119C10.2897 2.09454 10.3423 2.12171 10.4388 2.12171C13.743 2.11899 17.0471 2.11899 20.3542 2.11899C21.0268 2.11899 21.5355 2.5944 21.5355 3.22195C21.5355 6.91388 21.5297 10.6085 21.5414 14.3005C21.5443 14.9633 21.0092 15.3926 20.3893 15.3681C20.2226 15.36 20.056 15.3681 19.8864 15.3654C19.67 15.3627 19.5443 15.2486 19.5472 15.0584C19.5501 14.8737 19.67 14.765 19.8835 14.7623C20.0618 14.7596 20.2431 14.7623 20.4215 14.7623C20.7256 14.7596 20.8835 14.6102 20.8835 14.3276C20.8835 11.4833 20.8835 8.63624 20.8835 5.7919C20.8805 5.75659 20.8805 5.71855 20.8805 5.67237ZM0.657908 0.605814C0.657908 2.09726 0.657908 3.57511 0.657908 5.05841C7.38904 5.05841 14.1114 5.05841 20.8396 5.05841C20.8425 5.03124 20.8455 5.00951 20.8455 4.98777C20.8455 4.37109 20.8455 3.7517 20.8425 3.13502C20.8425 3.0834 20.825 3.02363 20.7958 2.98017C20.6934 2.81445 20.5472 2.73024 20.3279 2.73024C16.9506 2.73295 13.5734 2.73295 10.1961 2.73567C10.0148 2.73567 9.89202 2.68134 9.7926 2.53464C9.4768 2.07281 9.14931 1.61641 8.8189 1.16544C8.74287 1.06221 8.64638 0.969845 8.54404 0.893779C8.2721 0.692746 7.95338 0.611247 7.60834 0.611247C5.33344 0.611247 3.06147 0.611247 0.786566 0.611247C0.748554 0.605814 0.710541 0.605814 0.657908 0.605814Z" fill="#131135"/>
<path d="M4.45063 7.63919C5.2986 7.63919 6.14657 7.63919 6.99454 7.63919C7.25478 7.63919 7.40098 7.82664 7.31911 8.0494C7.27817 8.1635 7.18753 8.22327 7.06472 8.23957C7.02086 8.245 6.977 8.24229 6.93314 8.24229C5.27813 8.24229 3.6202 8.245 1.9652 8.23957C1.87163 8.23957 1.76929 8.20969 1.69034 8.16079C1.56753 8.08744 1.53829 7.94889 1.58507 7.82392C1.62893 7.70982 1.7342 7.64191 1.8804 7.63919C2.2693 7.63647 2.66112 7.63647 3.05002 7.63647C3.51786 7.63919 3.98278 7.63919 4.45063 7.63919Z" fill="#131135"/>
<path d="M4.46241 12.4586C5.30745 12.4586 6.14958 12.4586 6.99462 12.4586C7.25486 12.4586 7.40106 12.6461 7.31919 12.8688C7.27825 12.9829 7.19053 13.0427 7.0648 13.059C7.02679 13.0644 6.98585 13.0617 6.94491 13.0617C5.28114 13.0617 3.61736 13.0617 1.95358 13.059C1.86878 13.059 1.77229 13.0318 1.69919 12.9884C1.57638 12.9177 1.54129 12.7819 1.58223 12.6542C1.62317 12.5347 1.72843 12.464 1.88048 12.4586C1.92142 12.4559 1.95943 12.4586 2.00037 12.4586C2.82202 12.4586 3.64075 12.4586 4.46241 12.4586Z" fill="#131135"/>
<path d="M3.64876 10.0353C4.22188 10.0353 4.79499 10.0326 5.3681 10.0353C5.61664 10.0353 5.75115 10.2011 5.69267 10.4184C5.66343 10.5352 5.58155 10.6031 5.45874 10.6276C5.42073 10.6357 5.37979 10.6357 5.33886 10.6357C4.20433 10.6357 3.06981 10.6357 1.93235 10.6357C1.66919 10.6357 1.51129 10.4591 1.57562 10.2391C1.61363 10.1087 1.71598 10.0353 1.8768 10.0326C2.14289 10.0299 2.4119 10.0299 2.67798 10.0299C3.00255 10.0353 3.3242 10.0353 3.64876 10.0353Z" fill="#131135"/>
</svg>
