<svg width="18" height="20" viewBox="0 0 18 20" fill="none" xmlns="http://www.w3.org/2000/svg">
<path d="M12.489 13.2085C10.555 15.8478 6.62834 15.7235 4.90186 13.2766C5.55565 12.8598 6.21531 12.4449 6.86911 12.0181C7.04723 11.9019 7.20383 11.7536 7.3663 11.6153C7.61686 11.4029 7.62664 11.1323 7.44851 10.8457C7.06681 10.2345 6.63812 9.64334 6.48349 8.91789C6.45412 8.77761 6.53242 8.61328 6.5657 8.46098C6.58723 8.36078 6.64008 8.26258 6.644 8.16238C6.6577 7.80767 6.62442 7.44895 6.66944 7.10026C6.78885 6.19645 7.44264 5.58923 8.38614 5.52911C8.73457 5.50707 9.10257 5.53913 9.4373 5.63533C10.2183 5.85777 10.6764 6.51909 10.6881 7.34875C10.692 7.57521 10.6705 7.80366 10.694 8.02811C10.7136 8.20046 10.7997 8.36479 10.8291 8.53913C10.8545 8.68743 10.8936 8.86779 10.8369 8.98803C10.5452 9.60527 10.2438 10.2165 9.90709 10.8097C9.70938 11.1584 9.70547 11.3888 9.99909 11.6453C10.7429 12.2926 11.5514 12.8337 12.489 13.2085ZM10.369 7.86178C10.3358 7.6714 10.2829 7.30467 10.2085 6.93994C10.1655 6.73352 10.0324 6.61529 9.82096 6.55517C9.28266 6.40286 8.77763 6.47501 8.28239 6.7235C8.19627 6.76559 8.07686 6.81168 7.99856 6.78162C7.45439 6.57921 7.19992 6.6714 7.06485 7.24254C6.79668 8.37481 6.88085 9.469 7.53269 10.469C7.86741 10.984 8.32742 11.2245 8.93423 11.1463C9.46862 11.0762 9.74462 10.6914 9.94232 10.2365C10.2457 9.53914 10.326 8.79765 10.369 7.86178Z" fill="#131135"/>
<path d="M0.00401535 14.2165C0.0118452 13.3608 0.68717 12.6854 1.52105 12.6994C2.35884 12.7115 3.01459 13.3988 3.00481 14.2545C2.99502 15.1042 2.30599 15.7936 1.48581 15.7756C0.644106 15.7576 -0.00577196 15.0742 0.00401535 14.2165ZM2.20225 14.2485C2.21008 13.8578 1.90471 13.5291 1.52301 13.5151C1.14326 13.501 0.816362 13.8157 0.80266 14.2064C0.788958 14.6073 1.10607 14.9519 1.4956 14.96C1.86752 14.964 2.19637 14.6333 2.20225 14.2485Z" fill="#131135"/>
<path d="M17.3316 5.75754C17.3336 6.61926 16.6778 7.29461 15.8381 7.29662C14.9944 7.29862 14.3308 6.62928 14.3308 5.77157C14.3289 4.91585 14.9944 4.22648 15.8244 4.22046C16.6504 4.21846 17.3296 4.90984 17.3316 5.75754ZM16.531 5.76555C16.531 5.37878 16.2119 5.04812 15.8381 5.04211C15.4524 5.0381 15.1255 5.38078 15.1314 5.78159C15.1373 6.17437 15.4524 6.487 15.8381 6.48299C16.2237 6.47698 16.531 6.16034 16.531 5.76555Z" fill="#131135"/>
<path d="M17.3311 14.2385C17.3292 15.0902 16.6558 15.7776 15.8258 15.7755C14.9939 15.7735 14.3284 15.0862 14.3284 14.2305C14.3284 13.3768 14.9978 12.6954 15.8317 12.6974C16.6675 12.6994 17.3331 13.3828 17.3311 14.2385ZM15.1309 14.2465C15.1368 14.6333 15.4617 14.9619 15.8356 14.9579C16.2114 14.9539 16.5305 14.6212 16.5305 14.2345C16.5305 13.8317 16.1977 13.497 15.8102 13.511C15.4265 13.5271 15.1251 13.8537 15.1309 14.2465Z" fill="#131135"/>
<path d="M8.66543 0C9.50518 0 10.1668 0.675351 10.1668 1.53106C10.1648 2.38277 9.49344 3.07415 8.66543 3.07214C7.83547 3.07214 7.16797 2.38277 7.16602 1.53106C7.16602 0.673347 7.82372 0 8.66543 0ZM7.96662 1.54509C7.97249 1.93387 8.29351 2.25651 8.6713 2.25451C9.04714 2.25251 9.3662 1.92184 9.3662 1.53507C9.36816 1.12826 9.04518 0.807615 8.64586 0.817635C8.26024 0.827655 7.96075 1.14629 7.96662 1.54509Z" fill="#131135"/>
<path d="M1.48354 7.29654C0.64575 7.29053 -0.00217068 6.61117 0.00370171 5.74544C0.0095741 4.89574 0.698601 4.20435 1.52074 4.22239C2.35461 4.24043 3.01037 4.92981 3.00449 5.78351C2.99666 6.63722 2.32721 7.30255 1.48354 7.29654ZM1.49529 6.48291C1.88091 6.48692 2.1941 6.1763 2.20193 5.78151C2.20976 5.38271 1.87895 5.03802 1.49529 5.04403C1.11946 5.04804 0.802347 5.38071 0.802347 5.76748C0.804304 6.16428 1.10771 6.4789 1.49529 6.48291Z" fill="#131135"/>
<path d="M8.66396 20C7.82421 20 7.1665 19.3246 7.16846 18.4649C7.17042 17.6112 7.83791 16.9279 8.66984 16.9279C9.49784 16.9279 10.1693 17.6172 10.1693 18.4689C10.1673 19.3247 9.50176 20.002 8.66396 20ZM9.36669 18.4649C9.36473 18.0782 9.04763 17.7495 8.66984 17.7475C8.2803 17.7455 7.95732 18.0842 7.96515 18.485C7.97298 18.8798 8.28422 19.1844 8.67571 19.1804C9.06329 19.1764 9.36865 18.8597 9.36669 18.4649Z" fill="#131135"/>
<path d="M6.30698 1.46094C6.34612 1.75753 6.38136 2.00803 6.41659 2.27657C5.22058 2.65533 4.16747 3.28058 3.26116 4.15232C3.04193 3.97396 2.84227 3.80963 2.63086 3.63729C3.6781 2.60523 4.88977 1.88378 6.30698 1.46094Z" fill="#131135"/>
<path d="M17.0693 12.1724C16.8148 12.0682 16.5858 11.974 16.3274 11.8698C16.5975 10.6353 16.6093 9.38881 16.3235 8.1343C16.574 8.03009 16.8089 7.9339 17.0693 7.82568C17.4236 9.28059 17.4216 10.7195 17.0693 12.1724Z" fill="#131135"/>
<path d="M14.7022 3.63926C14.4869 3.81361 14.2853 3.97794 14.07 4.15229C13.1617 3.28055 12.1086 2.6553 10.9165 2.27854C10.9537 2.008 10.987 1.7575 11.0261 1.46692C12.4394 1.87574 13.6511 2.6052 14.7022 3.63926Z" fill="#131135"/>
<path d="M11.0246 18.5371C10.9855 18.2405 10.9522 17.99 10.9189 17.7234C12.1071 17.3447 13.1544 16.7274 14.0685 15.8517C14.274 16.016 14.4737 16.1783 14.7027 16.3607C13.6574 17.3948 12.4477 18.1182 11.0246 18.5371Z" fill="#131135"/>
<path d="M0.264256 12.1763C-0.0880869 10.7214 -0.0861294 9.28255 0.262299 7.82764C0.510897 7.92984 0.73992 8.02203 1.00418 8.13024C0.737962 9.36471 0.726218 10.6092 1.00809 11.8637C0.75558 11.9699 0.520684 12.0681 0.264256 12.1763Z" fill="#131135"/>
<path d="M2.62671 16.3627C2.84986 16.1823 3.04365 16.026 3.25897 15.8517C4.16723 16.7114 5.21447 17.3467 6.4144 17.7214C6.37917 17.988 6.34589 18.2385 6.30674 18.533C4.89737 18.1322 3.68961 17.3968 2.62671 16.3627Z" fill="#131135"/>
<path d="M8.12935 9.98792C8.46604 10.2023 8.7851 10.2885 9.11004 10.034C9.12962 10.02 9.19617 10.048 9.22553 10.0761C9.23923 10.0881 9.22553 10.1502 9.20791 10.1783C9.02 10.4729 8.27812 10.4388 8.10391 10.1262C8.09216 10.1082 8.11174 10.0741 8.12935 9.98792Z" fill="#131135"/>
<path d="M9.52496 7.99805C9.63067 8.15035 9.7579 8.25656 9.74224 8.33071C9.72071 8.42891 9.5876 8.50105 9.50343 8.58522C9.42318 8.49504 9.29594 8.41288 9.28028 8.31468C9.27049 8.24053 9.40752 8.14434 9.52496 7.99805Z" fill="#131135"/>
<path d="M8.15852 8.32263C8.01563 8.44086 7.92362 8.57513 7.84728 8.56712C7.74941 8.55509 7.66524 8.42884 7.5752 8.35269C7.65741 8.26651 7.72983 8.13024 7.82575 8.1082C7.90013 8.09217 8.00584 8.21842 8.15852 8.32263Z" fill="#131135"/>
</svg>
