<svg width="29" height="20" viewBox="0 0 29 20" fill="none" xmlns="http://www.w3.org/2000/svg">
<path d="M24.9614 9.5354C24.0989 9.65133 23.7218 9.97789 23.7821 10.7371C23.8389 11.467 23.8664 12.2148 23.7597 12.9349C23.7063 13.2941 23.4068 13.7627 23.0797 13.9194C20.6057 15.1065 18.1318 16.3082 15.5786 17.3205C14.797 17.6308 13.6487 17.6226 12.8637 17.3124C10.3605 16.3245 7.95883 15.1097 5.49866 14.0207C4.85822 13.7366 4.5776 13.3594 4.64819 12.6932C4.69467 12.2622 4.57932 11.8099 4.66196 11.3902C4.89782 10.2065 4.32452 9.62194 3.1986 9.2513C2.31369 8.95903 1.4615 8.54267 0.660953 8.07896C0.33557 7.89119 0.0084658 7.4389 0.00157939 7.09929C-0.00530702 6.7613 0.299417 6.2486 0.616192 6.10002C4.97357 4.06557 9.35505 2.07194 13.7451 0.0913676C14.0085 -0.0278258 14.4338 -0.0327241 14.6955 0.0848365C19.0855 2.06214 23.467 4.05414 27.8261 6.09022C28.1481 6.24044 28.4614 6.7417 28.4614 7.08132C28.4614 7.42094 28.1343 7.97119 27.8278 8.06263C26.6176 8.42511 26.2388 9.15006 26.454 10.262C26.4643 10.3142 26.4626 10.3714 26.454 10.4253C26.1338 12.4728 26.8138 14.3554 27.5162 16.2364C27.9983 17.5279 27.2442 18.581 26.5952 19.5591C26.0856 20.3281 24.8753 20.0277 24.4225 19.1705C23.4636 17.3532 23.7322 15.6306 24.7978 13.9505C24.8684 13.8378 24.9528 13.7088 24.9545 13.5863C24.9648 12.2573 24.9614 10.9282 24.9614 9.5354ZM1.79721 7.08132C5.92734 8.97046 9.88186 10.7877 13.8536 12.5724C14.0998 12.6834 14.5216 12.5969 14.797 12.4744C17.7186 11.1698 20.6281 9.84237 23.5376 8.51654C24.5275 8.0659 25.5123 7.60382 26.5659 7.11725C26.4092 6.99969 26.3542 6.94254 26.287 6.91152C22.4014 5.13341 18.5174 3.35367 14.6214 1.59516C14.4028 1.49556 14.0499 1.4874 13.8347 1.58537C9.86981 3.37653 5.91529 5.19382 1.79721 7.08132ZM6.13909 10.6441C6.13909 11.2368 6.07712 11.7299 6.16147 12.2001C6.2114 12.4826 6.42488 12.85 6.67623 12.9692C8.89538 14.0239 11.1231 15.0656 13.387 16.0274C13.8467 16.2233 14.5526 16.238 15.0088 16.0453C17.3295 15.0673 19.6072 14.0011 21.89 12.943C22.0777 12.8565 22.286 12.6148 22.3032 12.4287C22.3583 11.8719 22.3222 11.3086 22.3222 10.6588C21.9159 10.8269 21.6043 10.9445 21.3013 11.0833C19.2439 12.0221 17.1763 12.9414 15.1396 13.9194C14.482 14.2362 13.9397 14.2199 13.2992 13.9047C11.9822 13.2565 10.6342 12.6655 9.29651 12.0581C8.27732 11.5927 7.25125 11.1404 6.13909 10.6441ZM25.7154 15.5147C25.2317 16.4143 25.0647 17.2536 25.6862 18.0994C26.4282 17.2552 26.139 16.4143 25.7154 15.5147Z" fill="#131135"/>
</svg>
