<svg width="24" height="20" viewBox="0 0 24 20" fill="none" xmlns="http://www.w3.org/2000/svg">
<path d="M11.209 3.74394C11.7811 3.74394 12.2462 3.74394 12.809 3.74394C12.809 3.47852 12.8043 3.2224 12.809 2.96629C12.823 1.54138 13.7253 0.405174 15.0881 0.0745571C16.3671 -0.232777 17.7253 0.395861 18.3578 1.65779C19.3532 3.63218 20.3113 5.6252 21.2834 7.6089C21.9764 9.01984 22.6834 10.4215 23.3532 11.8371C24.3764 13.9977 24.1997 16.0839 22.6834 17.9325C21.2043 19.7393 19.2137 20.3819 16.9625 19.7812C14.6881 19.1758 13.2555 17.6159 12.8974 15.2829C12.702 14.0024 12.823 12.6753 12.809 11.3714C12.8043 10.9803 12.809 10.5845 12.809 10.1607C12.2695 10.1607 11.7904 10.1607 11.209 10.1607C11.209 10.7428 11.2183 11.3295 11.209 11.9209C11.1857 13.0943 11.2834 14.2864 11.0834 15.4319C10.6881 17.7137 9.25551 19.2038 7.03691 19.7905C4.81365 20.3772 2.84621 19.7439 1.36249 17.9744C-0.121233 16.2049 -0.409605 14.1607 0.57179 12.0746C2.2276 8.54953 3.96714 5.06641 5.70202 1.58329C6.31133 0.363265 7.68342 -0.232777 8.94388 0.0792136C10.3113 0.414487 11.195 1.55069 11.209 2.98026C11.209 3.2224 11.209 3.45989 11.209 3.74394ZM18.3718 9.86268C15.9299 9.872 13.8788 11.9116 13.8648 14.347C13.8555 16.8196 15.8974 18.8964 18.3625 18.9104C20.8416 18.9244 22.9299 16.815 22.902 14.3237C22.8788 11.8883 20.809 9.85803 18.3718 9.86268ZM5.6183 18.9104C8.07412 18.9197 10.1346 16.8615 10.1485 14.3842C10.1625 11.9581 8.10667 9.88131 5.67877 9.86734C3.209 9.84871 1.13458 11.893 1.11133 14.3609C1.09272 16.815 3.15319 18.9011 5.6183 18.9104ZM3.08342 9.35046C5.86016 8.26548 8.16249 8.79633 10.0834 10.9477C10.2648 10.2538 10.1485 9.75558 9.49737 9.43428C9.16249 9.2713 8.88807 8.9919 8.56249 8.8103C8.08342 8.54022 7.94388 8.18166 8.08342 7.64615C8.23691 7.05011 8.35784 6.43544 8.4276 5.82543C8.50202 5.19214 8.77644 4.67991 9.35784 4.49365C10.2043 4.22357 10.1997 3.62287 10.1532 2.94301C10.0834 2.00238 9.49737 1.30389 8.59505 1.12229C7.84156 0.96862 7.0183 1.37374 6.62295 2.15605C5.45086 4.50762 4.30202 6.87316 3.08342 9.35046ZM20.9253 9.33649C19.7067 6.85919 18.5532 4.47502 17.3578 2.10948C16.8648 1.1316 15.809 0.828923 14.8741 1.30855C14.0695 1.72764 13.5253 3.16652 13.8834 3.97677C13.9206 4.06059 14.0276 4.13975 14.1206 4.17235C15.2416 4.55418 15.4648 5.47153 15.7532 6.50529C16.1485 7.93952 15.8276 8.82892 14.4927 9.48084C13.7206 9.85803 13.7485 10.0024 13.9625 10.8964C15.6462 8.99656 17.9485 8.19097 20.9253 9.33649ZM14.6043 6.78469C14.4648 5.52275 14.2788 5.19214 13.1113 4.99656C12.3346 4.86618 11.4834 4.88946 10.716 5.06641C9.57644 5.32718 9.50202 5.54138 9.4276 6.78469C11.4834 6.16536 11.8648 5.98375 14.6043 6.78469ZM9.55784 8.07921C10.7904 9.54138 13.4509 9.40634 14.4369 8.08387C13.0183 7.09668 11.116 7.08736 9.55784 8.07921Z" fill="#F15C3D"/>
<path d="M14.9302 14.3796C14.9906 12.4844 16.5534 10.9524 18.1813 10.9337C18.5488 10.9291 18.8744 10.9849 18.9069 11.418C18.9395 11.8418 18.6604 11.9582 18.2744 12.0047C16.9488 12.177 16.172 12.9267 16.0092 14.2073C15.9581 14.5985 15.879 14.9849 15.4279 14.8872C15.186 14.8313 15.0092 14.4681 14.9302 14.3796Z" fill="#F15C3D"/>
<path d="M2.17676 14.4029C2.21862 12.4843 3.82792 10.9151 5.46513 10.929C5.84187 10.9337 6.19071 11.0315 6.1256 11.4506C6.09304 11.6555 5.76746 11.9349 5.53955 11.9768C4.16746 12.2282 3.42792 12.9127 3.25118 14.2445C3.20466 14.6171 3.10234 14.971 2.69769 14.8825C2.44653 14.8313 2.26513 14.4913 2.17676 14.4029Z" fill="#F15C3D"/>
</svg>
