<svg width="125" height="40" viewBox="0 0 125 40" fill="none" xmlns="http://www.w3.org/2000/svg">
<path d="M0.30957 0.131836H124.31V39.8986H0.30957V0.131836ZM35.4122 30.1229L35.4103 26.5671H33.2306V19.0787C33.2306 15.1906 30.5406 13.4095 27.5981 13.4095C25.0173 13.4095 23.1655 14.7556 22.2569 16.9353C21.4576 14.5369 19.2733 13.4095 16.9159 13.4095C14.6289 13.4095 12.9208 14.464 11.9389 16.2066V13.7374H4.89418V17.2976H7.25164V26.5671H5.07195V30.1273H15.0639V26.5671H11.9477V20.8575C11.9477 18.5684 12.8563 16.9694 15.1089 16.9694C16.9629 16.9694 17.9062 18.0605 17.9062 20.8939V30.1273H24.7645V26.5671H22.5957V20.8575C22.5957 18.5684 23.5046 16.9694 25.7572 16.9694C27.609 16.9694 28.554 18.0605 28.554 20.8939V30.1229H35.4127H35.4122ZM45.8394 30.4852V30.4871C51.0714 30.4871 54.85 27.1801 54.8456 21.9462C54.8456 17.3681 51.9694 13.4073 46.0881 13.4073C40.2068 13.4073 37.3006 17.3681 37.3006 22.1649C37.3006 27.3966 40.7898 30.4852 45.8394 30.4852ZM46.0196 17.006C48.238 17.006 50.0166 18.4955 50.0232 21.8025C50.0232 24.9275 48.4243 26.8885 45.9895 26.8885C43.4391 26.8885 42.1315 24.7088 42.1315 21.8754C42.1315 18.7849 43.6209 17.006 46.0196 17.006ZM71.9276 30.1229L72.9351 24.3855L69.2291 24.0232L68.4662 26.5671H63.1701L72.2577 16.2063L71.8954 13.7353H57.4925L56.9117 19.4771L60.2917 19.8394L61.0182 17.2952H66.1405L57.1389 27.6516L57.6104 30.1229H71.9276ZM80.7921 19.6207V13.7374H75.8861V19.6207H80.7921ZM80.7921 30.1229V24.2375H75.8861V30.1229H80.7921ZM83.3642 30.1229H87.9851L95.0708 5.13422H90.4566L83.3644 30.1229H83.3642ZM92.8846 30.1229H97.5055L104.587 5.13422H99.9727L92.8848 30.1229H92.8846ZM117.301 30.4852L117.307 30.4871C118.339 30.4741 119.352 30.2093 120.259 29.7158L120.222 27.2445C119.999 27.3135 119.766 27.3503 119.532 27.3537C118.767 27.3537 118.405 27.0258 118.405 26.0805V18.9585C118.405 15.2162 115.426 13.3989 111.9 13.3989C109.21 13.3989 107.757 13.7355 104.887 14.8992L104.161 19.1491L107.903 19.55L108.509 17.2245C109.272 16.8258 110.035 16.7532 111.017 16.7532C113.67 16.7532 113.707 18.7505 113.707 20.4223V20.9667C112.814 20.8619 111.916 20.8132 111.017 20.821C107.275 20.821 103.387 21.764 103.387 25.7979C103.387 29.212 106.079 30.4852 108.436 30.4852C111.088 30.4852 112.759 28.8863 113.705 27.2145C113.923 29.212 115.122 30.4852 117.301 30.4852H117.301ZM108.224 25.2532C108.224 23.4744 109.677 23.0028 111.356 23.005C112.146 23.0227 112.933 23.0943 113.713 23.2193C113.606 25.9435 111.825 27.1437 110.153 27.1437C108.732 27.1437 108.224 26.308 108.224 25.2532Z" fill="#1A1A1A"/>
</svg>
