<svg width="155" height="36" viewBox="0 0 155 36" fill="none" xmlns="http://www.w3.org/2000/svg">
<path d="M19.2557 0.863828C18.0622 0.778577 16.8175 1.05138 15.7093 1.69929C14.9973 2.10692 14.3729 2.65106 13.8717 3.30052C13.3705 3.94998 13.0024 4.69199 12.7886 5.48399C12.5747 6.276 12.5193 7.10242 12.6255 7.91588C12.7317 8.72934 12.9975 9.51384 13.4075 10.2244L25.9223 31.8782C27.6444 34.879 31.4637 35.8679 34.4645 34.1629C37.4483 32.4579 38.4372 28.6216 36.7322 25.6378L24.2514 3.98402C23.7359 3.09628 23.0113 2.34796 22.1407 1.80415C21.27 1.26035 20.2796 0.937549 19.2557 0.863828ZM9.99744 9.88339L0.926729 25.6378C0.374013 26.5852 0.0800203 27.6612 0.0742188 28.758C0.0742187 29.5797 0.236072 30.3934 0.550537 31.1526C0.865002 31.9118 1.32592 32.6016 1.90698 33.1826C2.48803 33.7637 3.17785 34.2246 3.93703 34.5391C4.69622 34.8535 5.50991 35.0154 6.33165 35.0154C7.42848 35.0121 8.50517 34.7205 9.4538 34.1698C10.4024 33.6192 11.1896 32.8289 11.7366 31.8782V31.8952L17.1244 22.5517C14.8227 18.6301 12.4697 14.7256 10.3555 10.6847C10.2191 10.429 10.0997 10.1562 10.0145 9.88339H9.99744ZM9.99744 9.88339L26.3315 6.88255L9.99744 9.88339Z" fill="black"/>
<path d="M49.1748 30.0156L54.9108 12.2556H60.5868L66.3228 30.0156H62.4828L57.5148 13.9596H57.9228L52.9668 30.0156H49.1748ZM53.1588 25.2756L53.9988 22.1676H61.4868L62.3148 25.2756H53.1588ZM67.9192 30.0156V10.6236H71.7352V30.0156H67.9192ZM74.5989 35.2956V16.8876H77.8149L78.0429 18.2916H78.2229C78.5989 17.8036 79.0789 17.4156 79.6629 17.1276C80.2549 16.8316 80.9389 16.6836 81.7149 16.6836C82.6829 16.6836 83.5749 16.9036 84.3909 17.3436C85.2069 17.7836 85.8589 18.4836 86.3469 19.4436C86.8429 20.3956 87.0909 21.6476 87.0909 23.1996C87.0909 24.7276 86.8189 26.0156 86.2749 27.0636C85.7389 28.1116 84.9389 28.9076 83.8749 29.4516C82.8189 29.9876 81.5069 30.2556 79.9389 30.2556C79.6749 30.2556 79.4109 30.2436 79.1469 30.2196C78.8909 30.2036 78.6469 30.1836 78.4149 30.1596V35.2956H74.5989ZM79.9389 27.3516C81.0429 27.3516 81.8709 27.0556 82.4229 26.4636C82.9749 25.8716 83.2509 24.8836 83.2509 23.4996C83.2509 22.5396 83.1389 21.7916 82.9149 21.2556C82.6909 20.7196 82.3789 20.3436 81.9789 20.1276C81.5789 19.9116 81.1149 19.8036 80.5869 19.8036C80.1949 19.8036 79.8029 19.8756 79.4109 20.0196C79.0269 20.1556 78.6949 20.3796 78.4149 20.6916V27.1956C78.6309 27.2356 78.8749 27.2716 79.1469 27.3036C79.4189 27.3356 79.6829 27.3516 79.9389 27.3516ZM89.2708 30.0156V10.6236H93.0868V18.2076H93.2788C93.7268 17.7116 94.2548 17.3356 94.8628 17.0796C95.4708 16.8156 96.1508 16.6836 96.9028 16.6836C97.7028 16.6836 98.4268 16.8516 99.0748 17.1876C99.7228 17.5236 100.235 18.0716 100.611 18.8316C100.995 19.5836 101.187 20.5836 101.187 21.8316V30.0156H97.3588V22.0836C97.3588 21.2836 97.1908 20.7356 96.8548 20.4396C96.5268 20.1356 96.0788 19.9836 95.5108 19.9836C95.2228 19.9836 94.9308 20.0236 94.6348 20.1036C94.3388 20.1756 94.0548 20.2916 93.7828 20.4516C93.5188 20.6116 93.2868 20.8116 93.0868 21.0516V30.0156H89.2708ZM107.531 30.2556C106.187 30.2556 105.139 29.9076 104.387 29.2116C103.643 28.5076 103.271 27.5916 103.271 26.4636C103.271 25.2236 103.699 24.2556 104.555 23.5596C105.419 22.8636 106.811 22.4516 108.731 22.3236L111.491 22.0956L111.899 24.2076L109.115 24.4356C108.379 24.4916 107.847 24.6596 107.519 24.9396C107.199 25.2196 107.039 25.6036 107.039 26.0916C107.039 26.5716 107.187 26.9436 107.483 27.2076C107.779 27.4636 108.211 27.5916 108.779 27.5916C109.131 27.5916 109.491 27.5316 109.859 27.4116C110.227 27.2836 110.563 27.0676 110.867 26.7636V21.9636C110.867 21.3636 110.767 20.8916 110.567 20.5476C110.375 20.2036 110.059 19.9596 109.619 19.8156C109.187 19.6636 108.607 19.5876 107.879 19.5876C107.375 19.5876 106.803 19.6316 106.163 19.7196C105.523 19.7996 104.911 19.9316 104.327 20.1156V17.2356C104.967 17.0516 105.667 16.9156 106.427 16.8276C107.195 16.7316 107.907 16.6836 108.563 16.6836C109.955 16.6836 111.095 16.8556 111.983 17.1996C112.879 17.5436 113.539 18.1196 113.963 18.9276C114.387 19.7276 114.599 20.8196 114.599 22.2036V30.0156H111.455L111.191 28.7076H111.011C110.619 29.2436 110.119 29.6356 109.511 29.8836C108.903 30.1316 108.243 30.2556 107.531 30.2556ZM122.401 30.2556C121.561 30.2556 120.697 30.1956 119.809 30.0756C118.929 29.9556 118.109 29.7716 117.349 29.5236V10.6236H121.165V18.1716H121.357C121.741 17.6996 122.217 17.3356 122.785 17.0796C123.353 16.8156 124.009 16.6836 124.753 16.6836C125.665 16.6836 126.509 16.9076 127.285 17.3556C128.061 17.8036 128.681 18.5076 129.145 19.4676C129.609 20.4276 129.841 21.6676 129.841 23.1876C129.841 25.4996 129.225 27.2556 127.993 28.4556C126.769 29.6556 124.905 30.2556 122.401 30.2556ZM122.737 27.3636C123.817 27.3636 124.629 27.0676 125.173 26.4756C125.725 25.8756 126.001 24.8796 126.001 23.4876C126.001 22.5356 125.885 21.7956 125.653 21.2676C125.429 20.7316 125.113 20.3556 124.705 20.1396C124.305 19.9236 123.837 19.8156 123.301 19.8156C122.917 19.8156 122.537 19.8796 122.161 20.0076C121.785 20.1276 121.453 20.3236 121.165 20.5956V27.1716C121.381 27.2276 121.621 27.2756 121.885 27.3156C122.157 27.3476 122.441 27.3636 122.737 27.3636ZM138.937 30.2676C137.289 30.2676 135.933 30.0316 134.869 29.5596C133.805 29.0876 133.013 28.3476 132.493 27.3396C131.981 26.3316 131.725 25.0316 131.725 23.4396C131.725 21.9916 131.961 20.7636 132.433 19.7556C132.913 18.7476 133.605 17.9836 134.509 17.4636C135.421 16.9436 136.525 16.6836 137.821 16.6836C139.061 16.6836 140.105 16.9476 140.953 17.4756C141.801 17.9956 142.441 18.7676 142.873 19.7916C143.305 20.8156 143.521 22.0716 143.521 23.5596V24.5556H133.909V22.3596H140.569L139.957 22.5876C139.957 21.7236 139.877 21.0356 139.717 20.5236C139.557 20.0116 139.313 19.6476 138.985 19.4316C138.665 19.2156 138.265 19.1076 137.785 19.1076C137.297 19.1076 136.885 19.2156 136.549 19.4316C136.221 19.6476 135.969 20.0116 135.793 20.5236C135.625 21.0276 135.541 21.7116 135.541 22.5756V24.1116C135.541 24.9196 135.657 25.5636 135.889 26.0436C136.129 26.5156 136.533 26.8556 137.101 27.0636C137.677 27.2716 138.469 27.3756 139.477 27.3756C139.989 27.3756 140.525 27.3396 141.085 27.2676C141.653 27.1876 142.221 27.0836 142.789 26.9556V29.8236C142.093 29.9836 141.429 30.0956 140.797 30.1596C140.173 30.2316 139.553 30.2676 138.937 30.2676ZM151.271 30.2556C149.687 30.2556 148.467 29.8636 147.611 29.0796C146.763 28.2876 146.339 27.0356 146.339 25.3236V16.8876L147.035 12.2556H150.155V24.7236C150.155 25.6276 150.323 26.2516 150.659 26.5956C151.003 26.9396 151.555 27.1116 152.315 27.1116C152.523 27.1116 152.735 27.0996 152.951 27.0756C153.175 27.0436 153.423 27.0036 153.695 26.9556V29.9796C153.351 30.0516 152.963 30.1156 152.531 30.1716C152.107 30.2276 151.687 30.2556 151.271 30.2556ZM144.203 19.8996V16.8876H153.611V19.8996H144.203Z" fill="black"/>
</svg>
