<svg width="100" height="19" viewBox="0 0 100 19" fill="none" xmlns="http://www.w3.org/2000/svg">
<path d="M10.9556 18.2196C8.70762 18.2196 6.83162 17.8956 5.32762 17.2476C3.82362 16.5916 2.69562 15.5956 1.94362 14.2596C1.19162 12.9236 0.815617 11.2276 0.815617 9.17162C0.815617 7.13162 1.20362 5.43562 1.97962 4.08362C2.75562 2.73162 3.89162 1.71962 5.38762 1.04762C6.88362 0.367624 8.71562 0.0276241 10.8836 0.0276241C11.5796 0.0276241 12.2596 0.0636239 12.9236 0.135623C13.5956 0.207624 14.2516 0.319624 14.8916 0.471625V3.68762C14.2676 3.53562 13.6516 3.42362 13.0436 3.35162C12.4436 3.27962 11.8396 3.24362 11.2316 3.24362C9.78362 3.24362 8.59162 3.44362 7.65562 3.84362C6.71962 4.24362 6.01962 4.88362 5.55562 5.76362C5.09962 6.63562 4.87162 7.79162 4.87162 9.23162C4.87162 10.5756 5.08362 11.6756 5.50762 12.5316C5.93962 13.3796 6.58362 14.0076 7.43962 14.4156C8.29562 14.8156 9.36762 15.0156 10.6556 15.0156C11.1436 15.0156 11.6276 14.9996 12.1076 14.9676C12.5876 14.9276 13.0276 14.8756 13.4276 14.8116L11.7596 16.2636V9.37562H15.3956V17.8236C14.6276 17.9516 13.8756 18.0476 13.1396 18.1116C12.4116 18.1836 11.6836 18.2196 10.9556 18.2196ZM26.289 18.2436C24.601 18.2436 23.129 17.9156 21.873 17.2596C20.625 16.6036 19.653 15.6036 18.957 14.2596C18.269 12.9076 17.925 11.1996 17.925 9.13562C17.925 7.07162 18.269 5.36762 18.957 4.02362C19.653 2.67162 20.625 1.66762 21.873 1.01162C23.129 0.355624 24.601 0.0276241 26.289 0.0276241C27.977 0.0276241 29.445 0.359624 30.693 1.02362C31.949 1.67962 32.921 2.68362 33.609 4.03562C34.305 5.37962 34.653 7.07962 34.653 9.13562C34.653 11.1916 34.305 12.8956 33.609 14.2476C32.921 15.5916 31.949 16.5956 30.693 17.2596C29.437 17.9156 27.969 18.2436 26.289 18.2436ZM26.289 15.0996C27.201 15.0996 27.981 14.9036 28.629 14.5116C29.285 14.1116 29.785 13.4796 30.129 12.6156C30.481 11.7516 30.657 10.6196 30.657 9.21962C30.657 7.76362 30.481 6.59562 30.129 5.71562C29.777 4.82762 29.273 4.18362 28.617 3.78362C27.969 3.37562 27.193 3.17162 26.289 3.17162C25.385 3.17162 24.605 3.36762 23.949 3.75962C23.301 4.15162 22.801 4.77962 22.449 5.64362C22.097 6.50762 21.921 7.64362 21.921 9.05162C21.921 10.5156 22.093 11.6916 22.437 12.5796C22.789 13.4596 23.289 14.0996 23.937 14.4996C24.593 14.8996 25.377 15.0996 26.289 15.0996ZM45.039 18.2436C43.351 18.2436 41.879 17.9156 40.623 17.2596C39.375 16.6036 38.403 15.6036 37.707 14.2596C37.019 12.9076 36.675 11.1996 36.675 9.13562C36.675 7.07162 37.019 5.36762 37.707 4.02362C38.403 2.67162 39.375 1.66762 40.623 1.01162C41.879 0.355624 43.351 0.0276241 45.039 0.0276241C46.727 0.0276241 48.195 0.359624 49.443 1.02362C50.699 1.67962 51.671 2.68362 52.359 4.03562C53.055 5.37962 53.403 7.07962 53.403 9.13562C53.403 11.1916 53.055 12.8956 52.359 14.2476C51.671 15.5916 50.699 16.5956 49.443 17.2596C48.187 17.9156 46.719 18.2436 45.039 18.2436ZM45.039 15.0996C45.951 15.0996 46.731 14.9036 47.379 14.5116C48.035 14.1116 48.535 13.4796 48.879 12.6156C49.231 11.7516 49.407 10.6196 49.407 9.21962C49.407 7.76362 49.231 6.59562 48.879 5.71562C48.527 4.82762 48.023 4.18362 47.367 3.78362C46.719 3.37562 45.943 3.17162 45.039 3.17162C44.135 3.17162 43.355 3.36762 42.699 3.75962C42.051 4.15162 41.551 4.77962 41.199 5.64362C40.847 6.50762 40.671 7.64362 40.671 9.05162C40.671 10.5156 40.843 11.6916 41.187 12.5796C41.539 13.4596 42.039 14.0996 42.687 14.4996C43.343 14.8996 44.127 15.0996 45.039 15.0996ZM65.565 18.2196C63.317 18.2196 61.441 17.8956 59.937 17.2476C58.433 16.5916 57.305 15.5956 56.553 14.2596C55.801 12.9236 55.425 11.2276 55.425 9.17162C55.425 7.13162 55.813 5.43562 56.589 4.08362C57.365 2.73162 58.501 1.71962 59.997 1.04762C61.493 0.367624 63.325 0.0276241 65.493 0.0276241C66.189 0.0276241 66.869 0.0636239 67.533 0.135623C68.205 0.207624 68.861 0.319624 69.501 0.471625V3.68762C68.877 3.53562 68.261 3.42362 67.653 3.35162C67.053 3.27962 66.449 3.24362 65.841 3.24362C64.393 3.24362 63.201 3.44362 62.265 3.84362C61.329 4.24362 60.629 4.88362 60.165 5.76362C59.709 6.63562 59.481 7.79162 59.481 9.23162C59.481 10.5756 59.693 11.6756 60.117 12.5316C60.549 13.3796 61.193 14.0076 62.049 14.4156C62.905 14.8156 63.977 15.0156 65.265 15.0156C65.753 15.0156 66.237 14.9996 66.717 14.9676C67.197 14.9276 67.637 14.8756 68.037 14.8116L66.369 16.2636V9.37562H70.005V17.8236C69.237 17.9516 68.485 18.0476 67.749 18.1116C67.021 18.1836 66.293 18.2196 65.565 18.2196ZM73.1224 18.0156V0.255625H77.0224V14.7756H85.1824V18.0156H73.1224ZM86.9036 18.0156V0.255625H99.3716V3.37562H90.7556V14.8956H99.4916V18.0156H86.9036ZM89.2196 10.4916V7.37162H98.1476V10.4916H89.2196Z" fill="#0E0E0E"/>
</svg>
