<svg width="20" height="19" viewBox="0 0 20 19" fill="none" xmlns="http://www.w3.org/2000/svg">
<path d="M11.032 0.702248L18.8554 8.52569C18.974 8.64423 19.0581 8.77264 19.1079 8.91094C19.1569 9.04923 19.1814 9.1974 19.1814 9.35545C19.1814 9.5135 19.1569 9.66167 19.1079 9.79996C19.0581 9.93826 18.974 10.0667 18.8554 10.1852L11.032 18.0087C10.8147 18.226 10.5432 18.3398 10.2176 18.35C9.89125 18.3595 9.60953 18.2457 9.37246 18.0087C9.13538 17.7913 9.01171 17.5199 9.00143 17.1943C8.99195 16.8679 9.10575 16.5862 9.34282 16.3491L15.1511 10.5408L1.90462 10.5408C1.56877 10.5408 1.28704 10.4274 1.05945 10.2006C0.832653 9.97303 0.719252 9.6913 0.719252 9.35545C0.719252 9.01959 0.832653 8.73827 1.05945 8.51147C1.28704 8.28387 1.56877 8.17008 1.90462 8.17008L15.1511 8.17008L9.34282 2.36176C9.1255 2.14445 9.01171 1.86786 9.00143 1.53201C8.99195 1.19615 9.10575 0.919565 9.34282 0.702248C9.56014 0.465174 9.83673 0.346634 10.1726 0.346634C10.5084 0.346634 10.7949 0.465174 11.032 0.702248Z" fill="#FE4A23"/>
</svg>
