<svg width="19" height="19" viewBox="0 0 19 19" fill="none" xmlns="http://www.w3.org/2000/svg">
<path d="M8.39332 17.996L0.569873 10.1726C0.451336 10.054 0.367175 9.9256 0.317389 9.78731C0.268394 9.64901 0.243896 9.50084 0.243896 9.34279C0.243896 9.18474 0.268394 9.03657 0.317389 8.89828C0.367175 8.75999 0.451336 8.63157 0.569873 8.51303L8.39332 0.68959C8.61064 0.472272 8.88209 0.358477 9.20767 0.348203C9.53404 0.33872 9.81576 0.452516 10.0528 0.68959C10.2899 0.906907 10.4136 1.17836 10.4239 1.50394C10.4333 1.83031 10.3195 2.11203 10.0825 2.34911L4.27416 8.15742H17.5207C17.8565 8.15742 18.1382 8.27082 18.3658 8.49762C18.5926 8.72521 18.706 9.00694 18.706 9.34279C18.706 9.67865 18.5926 9.95998 18.3658 10.1868C18.1382 10.4144 17.8565 10.5282 17.5207 10.5282H4.27416L10.0825 16.3365C10.2998 16.5538 10.4136 16.8304 10.4239 17.1662C10.4333 17.5021 10.3195 17.7787 10.0825 17.996C9.86515 18.2331 9.58857 18.3516 9.25271 18.3516C8.91686 18.3516 8.63039 18.2331 8.39332 17.996Z" fill="#FE4A23"/>
</svg>
