<svg width="40" height="32" viewBox="0 0 40 32" fill="none" xmlns="http://www.w3.org/2000/svg">
<path d="M21.4313 22.7935C21.4317 24.7965 22.0877 26.7444 23.2991 28.3397C24.5105 29.9349 26.2108 31.0897 28.1403 31.6277C30.0697 32.1658 32.1223 32.0575 33.9844 31.3193C35.8465 30.5812 37.4158 29.2538 38.4526 27.54C39.4895 25.8261 39.9368 23.82 39.7263 21.828C39.5158 19.8361 38.6591 17.9677 37.287 16.5084C35.9148 15.0491 34.1027 14.0791 32.1275 13.7465C30.1522 13.4138 28.1224 13.7369 26.348 14.6663C26.9613 12.3914 27.8261 10.4861 28.8614 8.96603C30.9318 5.92064 33.6444 4.44773 36.5011 4.44773C37.0224 4.44773 37.5223 4.24064 37.891 3.87202C38.2596 3.50339 38.4667 3.00343 38.4667 2.48212C38.4667 1.9608 38.2596 1.46084 37.891 1.09222C37.5223 0.723593 37.0224 0.5165 36.5011 0.5165C32.1217 0.5165 28.2795 2.83069 25.6089 6.75406C22.9619 10.6486 21.4313 16.1445 21.4313 22.7935Z" fill="#FE4A23"/>
<path d="M0.223091 22.792C0.223421 24.7951 0.879406 26.743 2.09085 28.3382C3.30229 29.9334 5.00259 31.0882 6.93204 31.6263C8.8615 32.1643 10.914 32.056 12.7761 31.3179C14.6383 30.5797 16.2076 29.2524 17.2444 27.5385C18.2812 25.8247 18.7285 23.8186 18.518 21.8266C18.3076 19.8346 17.4508 17.9663 16.0787 16.507C14.7066 15.0477 12.8945 14.0776 10.9192 13.745C8.94398 13.4124 6.91414 13.7354 5.13975 14.6649C5.75302 12.39 6.61789 10.4846 7.65312 8.96456C9.72357 5.91917 12.4361 4.44627 15.2928 4.44627C15.8141 4.44627 16.3141 4.23918 16.6827 3.87055C17.0513 3.50193 17.2584 3.00197 17.2584 2.48065C17.2584 1.95934 17.0513 1.45938 16.6827 1.09075C16.3141 0.722128 15.8141 0.515036 15.2928 0.515036C10.9134 0.515036 7.0713 2.82922 4.40068 6.75259C1.75365 10.6471 0.223091 16.143 0.223091 22.792Z" fill="#FE4A23"/>
</svg>
