<svg width="40" height="37" viewBox="0 0 40 37" fill="none" xmlns="http://www.w3.org/2000/svg">
<path d="M12.2884 28.2502H27.8884V27.1777C27.8884 25.7152 27.1734 24.553 25.7434 23.6911C24.3134 22.8305 22.4284 22.4002 20.0884 22.4002C17.7484 22.4002 15.8634 22.8305 14.4334 23.6911C13.0034 24.553 12.2884 25.7152 12.2884 27.1777V28.2502ZM20.0884 20.4502C21.1609 20.4502 22.0793 20.068 22.8437 19.3036C23.6068 18.5405 23.9884 17.6227 23.9884 16.5502C23.9884 15.4777 23.6068 14.5592 22.8437 13.7948C22.0793 13.0317 21.1609 12.6502 20.0884 12.6502C19.0159 12.6502 18.0981 13.0317 17.335 13.7948C16.5706 14.5592 16.1884 15.4777 16.1884 16.5502C16.1884 17.6227 16.5706 18.5405 17.335 19.3036C18.0981 20.068 19.0159 20.4502 20.0884 20.4502ZM4.48838 36.0502C3.41588 36.0502 2.49808 35.6686 1.73498 34.9055C0.970579 34.1411 0.588379 33.2227 0.588379 32.1502V8.7502C0.588379 7.6777 0.970579 6.75989 1.73498 5.99679C2.49808 5.23239 3.41588 4.8502 4.48838 4.8502H10.6309L14.2384 0.950195H25.9384L29.5459 4.8502H35.6884C36.7609 4.8502 37.6793 5.23239 38.4437 5.99679C39.2068 6.75989 39.5884 7.6777 39.5884 8.7502V32.1502C39.5884 33.2227 39.2068 34.1411 38.4437 34.9055C37.6793 35.6686 36.7609 36.0502 35.6884 36.0502H4.48838ZM35.6884 32.1502V8.7502H27.7909L24.2321 4.8502H15.9446L12.3859 8.7502H4.48838V32.1502H35.6884Z" fill="#FE4A23"/>
</svg>
