<svg width="23" height="41" viewBox="0 0 23 41" fill="none" xmlns="http://www.w3.org/2000/svg">
<path d="M0.0883789 27.1002H4.48838C4.48838 29.4762 7.50238 31.5002 11.0884 31.5002C14.6744 31.5002 17.6884 29.4762 17.6884 27.1002C17.6884 24.6802 15.4004 23.8002 10.5604 22.6342C5.89638 21.4682 0.0883789 20.0162 0.0883789 13.9002C0.0883789 9.96219 3.32238 6.61819 7.78838 5.49619V0.700195H14.3884V5.49619C18.8544 6.61819 22.0884 9.96219 22.0884 13.9002H17.6884C17.6884 11.5242 14.6744 9.50019 11.0884 9.50019C7.50238 9.50019 4.48838 11.5242 4.48838 13.9002C4.48838 16.3202 6.77638 17.2002 11.6164 18.3662C16.2804 19.5322 22.0884 20.9842 22.0884 27.1002C22.0884 31.0382 18.8544 34.3822 14.3884 35.5042V40.3002H7.78838V35.5042C3.32238 34.3822 0.0883789 31.0382 0.0883789 27.1002Z" fill="#FE4A23"/>
</svg>
