<svg width="36" height="37" viewBox="0 0 36 37" fill="none" xmlns="http://www.w3.org/2000/svg">
<path d="M30.0965 26.4068V16.6527L35.6386 11.1106L28.2492 3.72111L22.707 9.26323H9.77544V7.41586H15.3176V0.0263672H0.538574V7.41586H6.08069V18.5001H0.538574V25.8896H6.08069V35.1264H13.9874C14.3098 35.6849 14.7727 36.1492 15.3302 36.4733C15.8876 36.7974 16.5201 36.9699 17.1649 36.9738C17.8144 36.9777 18.4535 36.8103 19.0176 36.4886C19.5818 36.1668 20.0512 35.702 20.3785 35.1409C20.7058 34.5799 20.8794 33.9425 20.8819 33.2931C20.8843 32.6436 20.7155 32.0049 20.3925 31.4414C20.0694 30.878 19.6035 30.4096 19.0418 30.0836C18.48 29.7576 17.8423 29.5854 17.1928 29.5844C16.5433 29.5834 15.905 29.7537 15.3422 30.078C14.7795 30.4023 14.3122 30.8692 13.9874 31.4317H9.77544V25.8896H15.3176V18.5001H9.77544V12.958H22.707L26.4018 16.6527V26.3884C25.6974 26.795 25.1469 27.4228 24.8357 28.1742C24.5244 28.9256 24.4698 29.7588 24.6803 30.5444C24.8908 31.33 25.3547 32.0242 25.9999 32.5193C26.6452 33.0145 27.4358 33.2829 28.2492 33.2829C29.0625 33.2829 29.8531 33.0145 30.4984 32.5193C31.1436 32.0242 31.6075 31.33 31.818 30.5444C32.0285 29.7588 31.9739 28.9256 31.6627 28.1742C31.3514 27.4228 30.8009 26.795 30.0965 26.3884V26.4068ZM2.38595 5.56848V1.87374H13.4702V5.56848H2.38595ZM17.1649 31.4317C17.5303 31.4317 17.8875 31.54 18.1913 31.743C18.4951 31.946 18.7318 32.2345 18.8717 32.5721C19.0115 32.9097 19.0481 33.2811 18.9768 33.6395C18.9055 33.9978 18.7296 34.327 18.4712 34.5854C18.2129 34.8437 17.8837 35.0197 17.5253 35.0909C17.167 35.1622 16.7955 35.1256 16.458 34.9858C16.1204 34.846 15.8319 34.6092 15.6289 34.3054C15.4259 34.0016 15.3176 33.6444 15.3176 33.2791C15.3176 32.7891 15.5122 32.3192 15.8586 31.9728C16.2051 31.6263 16.675 31.4317 17.1649 31.4317ZM13.4702 20.3475V24.0422H2.38595V20.3475H13.4702ZM28.2492 6.32591L33.0339 11.1106L28.2492 15.8953L23.4645 11.1106L28.2492 6.32591ZM28.2492 31.4317C27.8838 31.4317 27.5266 31.3233 27.2228 31.1204C26.919 30.9174 26.6822 30.6288 26.5424 30.2913C26.4026 29.9537 26.366 29.5823 26.4373 29.2239C26.5086 28.8656 26.6845 28.5364 26.9429 28.278C27.2012 28.0197 27.5304 27.8437 27.8888 27.7724C28.2471 27.7012 28.6186 27.7377 28.9561 27.8776C29.2937 28.0174 29.5822 28.2542 29.7852 28.558C29.9882 28.8618 30.0965 29.2189 30.0965 29.5843C30.0965 30.0743 29.9019 30.5442 29.5554 30.8906C29.209 31.2371 28.7391 31.4317 28.2492 31.4317Z" fill="#FE4A23"/>
</svg>
