<svg width="23" height="21" viewBox="0 0 23 21" fill="none" xmlns="http://www.w3.org/2000/svg">
<path d="M0 2.96506C0.136149 2.59828 0.221242 2.20216 0.419011 1.87117C0.950697 0.98151 1.76055 0.507922 2.80162 0.506162C8.43186 0.497946 14.0623 0.497946 19.6929 0.506162C21.2111 0.506162 22.4822 1.73855 22.491 3.23325C22.5075 5.83182 22.4963 8.43098 22.4963 11.0296C22.4963 11.0513 22.4916 11.073 22.4857 11.1252C22.4271 11.0747 22.3783 11.0395 22.3361 10.9973C21.8079 10.4691 21.2757 9.94564 20.7557 9.40985C20.6755 9.32186 20.629 9.20839 20.6243 9.08943C20.616 7.21562 20.6031 5.34122 20.6243 3.46741C20.6325 2.81013 20.2005 2.37176 19.5245 2.37352C14.0038 2.38839 8.48311 2.38839 2.96242 2.37352C2.3028 2.37352 1.83391 2.79898 1.8697 3.47151C1.90022 4.03313 1.87616 4.59709 1.87616 5.19333H2.14728C3.68483 5.19333 5.22296 5.18922 6.76051 5.19333C8.06567 5.19803 9.08678 6.05072 9.33091 7.33123C9.3557 7.47541 9.36729 7.62155 9.36554 7.76784C9.36906 8.54366 9.37375 9.31947 9.36554 10.0953C9.35087 11.5624 8.23996 12.6721 6.76931 12.6774C5.23177 12.6856 3.69422 12.6774 2.15667 12.6774H1.89729C1.88907 12.7461 1.87909 12.7883 1.87909 12.8306C1.87909 13.4086 1.87205 13.9873 1.87909 14.5653C1.8879 15.0935 2.2717 15.4697 2.79986 15.4873C2.94599 15.492 3.09329 15.4873 3.23882 15.4873C5.65508 15.4873 8.07134 15.4873 10.4876 15.4873C10.5619 15.4809 10.6365 15.4943 10.7038 15.5263C10.7712 15.5583 10.8288 15.6076 10.8708 15.6692C11.3638 16.3147 12.0287 16.6346 12.8368 16.6668C12.9101 16.6698 12.9829 16.6668 13.0562 16.6715C13.0749 16.6756 13.0931 16.6819 13.1102 16.6903V17.3705H2.91195C1.42781 17.3705 0.315138 16.4468 0.0363847 14.9884C0.0277004 14.9612 0.0158846 14.935 0.0011737 14.9104L0 2.96506ZM7.50053 8.9392C7.50053 8.56745 7.39019 8.20408 7.1835 7.89509C6.97682 7.5861 6.68307 7.34541 6.33948 7.20351C5.99589 7.0616 5.61792 7.02486 5.25343 7.09794C4.88894 7.17102 4.55434 7.35063 4.29202 7.61403C4.02969 7.87742 3.85144 8.21275 3.77985 8.57753C3.70825 8.94231 3.74653 9.32014 3.88984 9.66315C4.03314 10.0062 4.27503 10.2989 4.58485 10.5043C4.89468 10.7098 5.2585 10.8186 5.63024 10.8171C6.12686 10.8131 6.60184 10.6133 6.95202 10.2612C7.3022 9.90899 7.49931 9.43289 7.50053 8.93626V8.9392Z" fill="white"/>
<path d="M18.7352 8.93213C18.8021 8.95912 18.8684 8.98671 18.9353 9.01311C19.4142 9.19915 19.6894 9.6205 19.69 10.1868C19.6923 11.4681 19.6923 12.7492 19.69 14.0301V14.3235H19.94C20.5327 14.3235 21.126 14.327 21.7187 14.3235C22.0521 14.3235 22.3056 14.4409 22.4394 14.756C22.5732 15.0712 22.4758 15.3382 22.2416 15.5723C20.7862 17.0265 19.3314 18.4802 17.8772 19.9332C17.5451 20.2642 17.1425 20.2665 16.8103 19.9332C15.3479 18.4763 13.8876 17.017 12.4295 15.5553C12.2018 15.3276 12.1161 15.0577 12.2452 14.7537C12.3743 14.4497 12.6173 14.3194 12.9436 14.3212C13.5439 14.3247 14.1443 14.3212 14.7446 14.3212H15.0005V10.3734C15.0005 9.52543 15.1947 9.23612 15.967 8.93213H18.7352Z" fill="white"/>
</svg>
