<svg width="111" height="34" viewBox="0 0 111 34" fill="none" xmlns="http://www.w3.org/2000/svg">
  <rect x="0.355769" y="0.739192" width="110.288" height="32.6719" rx="4.44712" fill="#100F0D"/>
  <path d="M37.8872 21.5917H40.8047L39.7603 18.7957C39.6165 18.4094 39.4752 17.9828 39.3359 17.5155C39.2101 17.9289 39.073 18.351 38.9248 18.7822L37.8872 21.5917ZM41.3033 22.919H37.3954L36.4388 25.5332H34.7207L38.5476 15.7705H40.1713L44.0859 25.5332H42.2803L41.3033 22.919Z" fill="white"/>
  <path d="M49.1542 23.7579C49.4934 23.3021 49.6629 22.636 49.6629 21.7602C49.6629 20.9473 49.5225 20.3576 49.2419 19.9914C48.961 19.6255 48.5871 19.4424 48.1199 19.4424C47.7966 19.4424 47.4979 19.519 47.2239 19.6715C46.95 19.8243 46.6894 20.0286 46.4423 20.2846V24.179C46.6086 24.2597 46.8017 24.3238 47.0219 24.3708C47.242 24.4182 47.4598 24.4418 47.6753 24.4418C48.3223 24.4418 48.815 24.2137 49.1542 23.7579ZM44.7783 20.0421C44.7783 19.5031 44.7602 18.9101 44.7244 18.2634H46.2874C46.3457 18.5644 46.3862 18.8721 46.4087 19.1864C47.0555 18.4814 47.7966 18.1286 48.6321 18.1286C49.1172 18.1286 49.5663 18.251 49.9796 18.4957C50.3927 18.7406 50.7263 19.1269 50.98 19.6546C51.234 20.1824 51.3608 20.853 51.3608 21.6659C51.3608 22.5148 51.2159 23.2403 50.9262 23.842C50.6364 24.4441 50.2311 24.8998 49.7101 25.2099C49.1891 25.5196 48.5871 25.6747 47.9045 25.6747C47.4102 25.6747 46.9228 25.5915 46.4423 25.4255V28.4303L44.7783 28.5718V20.0421Z" fill="white"/>
  <path d="M56.7467 23.7579C57.0858 23.3021 57.2554 22.636 57.2554 21.7602C57.2554 20.9473 57.115 20.3576 56.8344 19.9914C56.5535 19.6255 56.1796 19.4424 55.7125 19.4424C55.3891 19.4424 55.0904 19.519 54.8164 19.6715C54.5423 19.8243 54.2819 20.0286 54.0348 20.2846V24.179C54.2011 24.2597 54.394 24.3238 54.6144 24.3708C54.8342 24.4182 55.0521 24.4418 55.2678 24.4418C55.9145 24.4418 56.4075 24.2137 56.7467 23.7579ZM52.3705 20.0421C52.3705 19.5031 52.3525 18.9101 52.3167 18.2634H53.8799C53.9382 18.5644 53.9787 18.8721 54.0012 19.1864C54.648 18.4814 55.3891 18.1286 56.2245 18.1286C56.7097 18.1286 57.1586 18.251 57.5721 18.4957C57.9852 18.7406 58.3188 19.1269 58.5727 19.6546C58.8262 20.1824 58.9533 20.853 58.9533 21.6659C58.9533 22.5148 58.8082 23.2403 58.5187 23.842C58.2289 24.4441 57.8234 24.8998 57.3026 25.2099C56.7814 25.5196 56.1796 25.6747 55.4968 25.6747C55.0027 25.6747 54.5153 25.5915 54.0348 25.4255V28.4303L52.3705 28.5718V20.0421Z" fill="white"/>
  <path d="M62.0103 25.0717C61.2915 24.6743 60.7391 24.1048 60.353 23.3637C59.9664 22.6226 59.7734 21.7467 59.7734 20.7361C59.7734 19.6402 59.9958 18.7091 60.4405 17.9432C60.8851 17.1776 61.4905 16.6026 62.2561 16.2185C63.0221 15.8345 63.8809 15.6425 64.8335 15.6425C65.3948 15.6425 65.9305 15.7043 66.4404 15.8277C66.95 15.9514 67.4249 16.1208 67.8654 16.3365L67.4407 17.6165C66.5558 17.1944 65.7115 16.9832 64.9076 16.9832C64.2292 16.9832 63.6352 17.1281 63.1256 17.4179C62.6157 17.7076 62.2191 18.1332 61.9363 18.6946C61.6532 19.2561 61.5118 19.9343 61.5118 20.7293C61.5118 21.4257 61.6207 22.0432 61.8383 22.5821C62.0564 23.1211 62.4001 23.548 62.8694 23.8623C63.3388 24.1767 63.9306 24.3338 64.6447 24.3338C64.9681 24.3338 65.2915 24.3069 65.6149 24.2531C65.9383 24.1993 66.2416 24.1206 66.5245 24.0172V22.0432H64.2675V20.7495H68.1416V24.8595C67.5845 25.1199 66.9994 25.32 66.3865 25.4591C65.7731 25.5982 65.1635 25.6679 64.5571 25.6679C63.5778 25.6679 62.7288 25.4694 62.0103 25.0717Z" fill="white"/>
  <path d="M73.0583 24.1856C73.4039 24.0196 73.687 23.8128 73.9071 23.5658V22.2183C73.4533 22.169 73.0828 22.1443 72.7954 22.1443C72.1082 22.1443 71.633 22.2553 71.3706 22.4778C71.1076 22.6998 70.9763 22.9999 70.9763 23.3771C70.9763 23.7367 71.0717 24.0027 71.2627 24.1756C71.4537 24.3485 71.7129 24.4349 72.0408 24.4349C72.373 24.4349 72.7122 24.3519 73.0583 24.1856ZM74.0553 25.5332C73.9968 25.2501 73.9585 24.9292 73.9407 24.5698C73.6848 24.8753 73.3514 25.1346 72.9401 25.348C72.5295 25.5613 72.0655 25.6679 71.5489 25.6679C71.1312 25.6679 70.7506 25.586 70.4067 25.4219C70.0636 25.2581 69.7905 25.0111 69.5884 24.6808C69.3863 24.3508 69.2851 23.9477 69.2851 23.4714C69.2851 22.7664 69.5388 22.2037 70.0464 21.7836C70.5541 21.3637 71.4007 21.1538 72.5865 21.1538C73.0311 21.1538 73.4714 21.1854 73.9071 21.2481V21.1067C73.9071 20.4644 73.77 20.0119 73.496 19.7489C73.2221 19.4864 72.829 19.3549 72.3172 19.3549C71.9622 19.3549 71.5827 19.4066 71.1784 19.5098C70.7742 19.6133 70.4192 19.7367 70.1139 19.8804L69.851 18.6677C70.1475 18.5328 70.5383 18.4094 71.0235 18.2971C71.5086 18.1849 72.0205 18.1286 72.5595 18.1286C73.1885 18.1286 73.7228 18.224 74.1631 18.4149C74.6033 18.6059 74.9469 18.9339 75.1939 19.3986C75.441 19.8637 75.5645 20.4892 75.5645 21.2751V24.1653C75.5645 24.4665 75.5823 24.9226 75.6184 25.5332H74.0553Z" fill="white"/>
  <path d="M76.8413 23.7881V15.1978L78.4987 15.063V23.4917C78.4987 23.8017 78.5514 24.0205 78.6569 24.1486C78.7624 24.2764 78.9297 24.3408 79.159 24.3408C79.2622 24.3408 79.4082 24.3161 79.5967 24.2666L79.7922 25.4591C79.6348 25.5221 79.443 25.5726 79.2164 25.6107C78.9894 25.6487 78.7749 25.6679 78.5728 25.6679C77.4181 25.6679 76.8413 25.0414 76.8413 23.7881Z" fill="white"/>
  <path d="M80.9848 23.7881V15.1978L82.6422 15.063V23.4917C82.6422 23.8017 82.695 24.0205 82.8005 24.1486C82.9062 24.2764 83.0735 24.3408 83.3025 24.3408C83.4058 24.3408 83.5518 24.3161 83.7405 24.2666L83.9359 25.4591C83.7786 25.5221 83.5865 25.5726 83.36 25.6107C83.1329 25.6487 82.9184 25.6679 82.7163 25.6679C81.5619 25.6679 80.9848 25.0414 80.9848 23.7881Z" fill="white"/>
  <path d="M89.1295 21.0528C89.0961 20.4733 88.9515 20.0388 88.6911 19.7489C88.4307 19.4594 88.0813 19.3144 87.6473 19.3144C87.2244 19.3144 86.8728 19.4605 86.5924 19.7524C86.312 20.0445 86.1272 20.4779 86.0427 21.0528H89.1295ZM90.752 22.1105H85.9959C86.0716 23.6333 86.7971 24.3946 88.1725 24.3946C88.513 24.3946 88.8625 24.353 89.2208 24.27C89.5769 24.1867 89.9196 24.0757 90.2468 23.9363L90.6118 25.0749C89.7972 25.4704 88.8847 25.6679 87.8699 25.6679C87.0954 25.6679 86.4455 25.5221 85.9158 25.23C85.3839 24.9381 84.9855 24.5181 84.7184 23.97C84.4518 23.4223 84.3181 22.7619 84.3181 21.9892C84.3181 21.1854 84.4596 20.4935 84.7429 19.9141C85.0256 19.3346 85.4195 18.8923 85.9247 18.5868C86.4299 18.2814 87.013 18.1286 87.674 18.1286C88.3617 18.1286 88.9337 18.2892 89.3944 18.6105C89.8551 18.9314 90.1956 19.3594 90.4181 19.8938C90.6407 20.4286 90.752 21.019 90.752 21.6659V22.1105Z" fill="white"/>
  <path d="M92.0116 20.0893C92.0116 19.6896 91.9916 19.0811 91.956 18.2634H93.5139C93.5406 18.4656 93.5651 18.707 93.5918 18.9878C93.6162 19.2684 93.6318 19.4964 93.6407 19.6715C93.8344 19.3527 94.0235 19.0843 94.2105 18.8665C94.3974 18.6485 94.6155 18.4712 94.8648 18.334C95.1141 18.1971 95.3967 18.1286 95.7172 18.1286C95.9731 18.1286 96.1912 18.1556 96.376 18.2095L96.1668 19.6514C96.0065 19.602 95.8262 19.5772 95.6282 19.5772C95.2387 19.5772 94.896 19.6772 94.6044 19.8771C94.3129 20.0768 94.0013 20.4059 93.6674 20.864V25.5332H92.0116V20.0893Z" fill="white"/>
  <path d="M97.3107 28.5077C97.0681 28.4652 96.8678 28.4169 96.712 28.363L97.0147 27.1503C97.126 27.1815 97.2684 27.2119 97.4398 27.2411C97.6089 27.2705 97.7714 27.285 97.925 27.285C98.6616 27.285 99.2136 26.8109 99.5808 25.8633L99.6898 25.5938L97.008 18.2634H98.7929L100.142 22.3598C100.36 23.0606 100.502 23.5974 100.564 23.97C100.691 23.4445 100.838 22.919 101.01 22.3935L102.378 18.2634H104.054L101.381 25.6276C101.13 26.3237 100.856 26.885 100.564 27.3119C100.273 27.7385 99.928 28.0552 99.5318 28.2619C99.1334 28.4683 98.6549 28.5718 98.0919 28.5718C97.8137 28.5718 97.5533 28.5507 97.3107 28.5077Z" fill="white"/>
  <path d="M34.7134 6.47683H37.6796L37.5961 7.19324H35.5827V8.58066H37.4813V9.25189H35.5827V10.7889H37.7039L37.6309 11.5121H34.7134V6.47683Z" fill="white"/>
  <path d="M39.7242 8.94231L38.1594 6.47683H39.1469L40.2076 8.28866L41.324 6.47683H42.2836L40.7326 8.91093L42.4123 11.5121H41.4108L40.2112 9.53008L38.9905 11.5121H38.0308L39.7242 8.94231Z" fill="white"/>
  <path d="M45.2325 8.72487C45.4179 8.55707 45.5107 8.31982 45.5107 8.01381C45.5107 7.70312 45.4161 7.47967 45.2274 7.3428C45.0384 7.20592 44.7607 7.1376 44.3946 7.1376H43.9216V8.92495C44.1395 8.95967 44.3064 8.97703 44.4224 8.97703C44.7769 8.97703 45.0471 8.89313 45.2325 8.72487ZM43.0521 6.47683H44.4084C45.0458 6.47683 45.5338 6.6068 45.8724 6.86631C46.2109 7.12603 46.38 7.50148 46.38 7.99289C46.38 8.32672 46.3041 8.61849 46.1523 8.86753C46.0003 9.11679 45.7889 9.30819 45.5176 9.44128C45.2465 9.57482 44.9345 9.64136 44.5822 9.64136C44.3899 9.64136 44.1696 9.61821 43.9216 9.5717V11.5121H43.0521V6.47683Z" fill="white"/>
  <path d="M47.2391 6.47683H48.1084V10.7679H50.1913L50.1183 11.5121H47.2391V6.47683Z" fill="white"/>
  <path d="M53.7662 10.648C54.0097 10.4846 54.1915 10.2598 54.3121 9.97341C54.4328 9.6872 54.4931 9.3596 54.4931 8.99104C54.4931 8.62939 54.4396 8.30735 54.333 8.02426C54.2262 7.74139 54.056 7.51616 53.8218 7.34791C53.5877 7.17988 53.2864 7.09575 52.9176 7.09575C52.5653 7.09575 52.2662 7.18099 52.0205 7.35147C51.7748 7.52173 51.5905 7.75029 51.4676 8.0365C51.3448 8.32293 51.2834 8.63874 51.2834 8.98414C51.2834 9.34802 51.3412 9.67385 51.4572 9.96117C51.5729 10.2487 51.7503 10.4759 51.9893 10.6429C52.2279 10.8098 52.5234 10.8932 52.876 10.8932C53.226 10.8932 53.5227 10.8113 53.7662 10.648ZM51.5128 11.2653C51.1443 11.0544 50.8625 10.7581 50.6678 10.3767C50.473 9.99544 50.3758 9.55211 50.3758 9.04668C50.3758 8.51589 50.4793 8.05164 50.6869 7.65393C50.8943 7.25644 51.1934 6.94931 51.584 6.73232C51.9746 6.51577 52.4353 6.40717 52.9663 6.40717C53.474 6.40717 53.9111 6.51221 54.2774 6.72186C54.6435 6.93195 54.923 7.22684 55.1153 7.60696C55.3078 7.98731 55.404 8.42775 55.404 8.9285C55.404 9.46865 55.2992 9.93824 55.0893 10.3368C54.8794 10.7354 54.5805 11.0428 54.1922 11.2582C53.8038 11.4739 53.3478 11.5817 52.8239 11.5817C52.3185 11.5817 51.8814 11.4763 51.5128 11.2653Z" fill="white"/>
  <path d="M57.7375 8.85885C57.9483 8.85885 58.135 8.8179 58.2972 8.73533C58.4595 8.65321 58.5859 8.53726 58.6763 8.3877C58.7668 8.23814 58.812 8.06477 58.812 7.86781C58.812 7.61521 58.7319 7.43026 58.5721 7.3132C58.4121 7.19613 58.1791 7.1376 57.8731 7.1376H57.2437V8.85885H57.7375ZM56.3744 6.47683H57.9496C58.5245 6.47683 58.9598 6.59167 59.2554 6.82113C59.5509 7.05058 59.6987 7.37885 59.6987 7.80527C59.6987 8.07189 59.6453 8.30669 59.5387 8.50944C59.4321 8.71241 59.2999 8.87755 59.1423 9.00485C58.9845 9.13237 58.8225 9.2274 58.6556 9.29017L60.203 11.5121H59.1946L57.8835 9.51606H57.2437V11.5121H56.3744V6.47683Z" fill="white"/>
  <path d="M60.8916 6.47683H63.8578L63.7743 7.19324H61.7609V8.58066H63.6595V9.25189H61.7609V10.7889H63.8821L63.8091 11.5121H60.8916V6.47683Z" fill="white"/>
  <path d="M67.0849 6.47683H67.9542V11.5121H67.0849V6.47683Z" fill="white"/>
  <path d="M70.2527 7.2037H68.6913L68.7678 6.47683H72.6871L72.6069 7.2037H71.122V11.5121H70.2527V7.2037Z" fill="white"/>
  <path d="M78.7135 10.648C78.9567 10.4846 79.1387 10.2598 79.2594 9.97341C79.3798 9.6872 79.4401 9.3596 79.4401 8.99104C79.4401 8.62939 79.3867 8.30735 79.2803 8.02426C79.1735 7.74139 79.003 7.51616 78.7691 7.34791C78.5347 7.17988 78.2334 7.09575 77.8649 7.09575C77.5123 7.09575 77.2134 7.18099 76.9677 7.35147C76.7218 7.52173 76.5375 7.75029 76.4149 8.0365C76.2918 8.32293 76.2304 8.63874 76.2304 8.98414C76.2304 9.34802 76.2883 9.67385 76.4044 9.96117C76.5202 10.2487 76.6975 10.4759 76.9363 10.6429C77.1751 10.8098 77.4707 10.8932 77.8232 10.8932C78.1731 10.8932 78.47 10.8113 78.7135 10.648ZM76.4601 11.2653C76.0913 11.0544 75.8097 10.7581 75.615 10.3767C75.4203 9.99544 75.3228 9.55211 75.3228 9.04668C75.3228 8.51589 75.4265 8.05164 75.6342 7.65393C75.8414 7.25644 76.1405 6.94931 76.5313 6.73232C76.9219 6.51577 77.3826 6.40717 77.9136 6.40717C78.4212 6.40717 78.8581 6.51221 79.2247 6.72186C79.5908 6.93195 79.8701 7.22684 80.0626 7.60696C80.2549 7.98731 80.3512 8.42775 80.3512 8.9285C80.3512 9.46865 80.2462 9.93824 80.0366 10.3368C79.8267 10.7354 79.5276 11.0428 79.1394 11.2582C78.7511 11.4739 78.2948 11.5817 77.7709 11.5817C77.2655 11.5817 76.8286 11.4763 76.4601 11.2653Z" fill="white"/>
  <path d="M81.3214 6.47683H82.3195L84.8097 10.3785C84.7875 10.0077 84.7786 9.66562 84.7786 9.35271V6.47683H85.5842V11.5121H84.6183L82.0901 7.54777C82.1155 7.99778 82.1281 8.39638 82.1281 8.74401V11.5121H81.3214V6.47683Z" fill="white"/>
  <path fill-rule="evenodd" clip-rule="evenodd" d="M22.4854 6.50375H13.2395C8.88407 6.50375 7.29102 8.09681 7.29102 12.4523V21.6983C7.29102 26.0536 8.88407 27.6466 13.2395 27.6466H22.4825C26.8379 27.6466 28.4339 26.0536 28.4339 21.6983V12.4523C28.4339 8.09681 26.8408 6.50375 22.4854 6.50375Z" fill="url(#paint0_linear_2_90)"/>
  <path d="M16.5149 18.7656H17.3629L16.9375 17.7765L16.5149 18.7656ZM16.3062 19.2642L16.0547 19.8397H15.482L16.6999 17.077H17.1946L18.4075 19.8397H17.8195L17.5712 19.2642H16.3062ZM25.5207 19.8378H26.0742V17.077H25.5207V19.8378ZM23.318 18.6515H24.338V18.1484H23.318V17.5824H24.7987V17.0787H22.7647V19.8394H24.8521V19.3359H23.318V18.6515ZM21.1189 18.9777L20.4913 17.0769H20.0338L19.4062 18.9777L18.7954 17.0782H18.1986L19.162 19.841H19.6263L20.2548 18.0262L20.883 19.841H21.3515L22.3125 17.0782H21.731L21.1189 18.9777ZM14.6372 18.6591C14.6372 19.1086 14.414 19.3487 14.0087 19.3487C13.6012 19.3487 13.3769 19.1018 13.3769 18.64V17.0785H12.816V18.6591C12.816 19.4367 13.248 19.8826 14.0011 19.8826C14.7616 19.8826 15.1978 19.4282 15.1978 18.6363V17.0769H14.6372V18.6591ZM11.4778 17.077H12.0384V19.8412H11.4778V18.7187H10.2112V19.8412H9.65039V17.077H10.2112V18.1921H11.4778V17.077Z" fill="white"/>
  <path d="M17.8625 13.5574C15.9221 13.5574 14.3433 11.9786 14.3433 10.0381H14.8404C14.8404 11.7045 16.196 13.0603 17.8625 13.0603C19.529 13.0603 20.8846 11.7045 20.8846 10.0381H21.3818C21.3818 11.9786 19.803 13.5574 17.8625 13.5574Z" fill="white"/>
  <rect x="0.355769" y="0.739192" width="110.288" height="32.6719" rx="4.44712" stroke="#A6A6A6" stroke-width="0.711538"/>
  <defs>
  <linearGradient id="paint0_linear_2_90" x1="17.8624" y1="27.6466" x2="17.8624" y2="6.50375" gradientUnits="userSpaceOnUse">
  <stop stop-color="#ED3E45"/>
  <stop offset="1" stop-color="#FB6361"/>
  </linearGradient>
  </defs>
</svg>
