<svg xmlns:xlink="http://www.w3.org/1999/xlink" viewBox="0 0 160 33" fill="none" xmlns="http://www.w3.org/2000/svg" aria-hidden="true" focusable="false" width="160"  height="33" >
<path fill-rule="evenodd" clip-rule="evenodd" d="M145.049 27.8634V18.6289H155.265V13.9113H145.049V6.59122H157.716V1.87202H139.819V32.5794H159.021V27.8634H145.049ZM130.671 33.7596L130.711 1.83221H125.481L125.563 22.0453L102.602 0.978516L102.561 32.5778H107.791L107.708 13.1388L130.671 33.7596ZM93.4045 32.5778L93.4077 1.83221H88.1792L88.1744 32.5778H93.4045ZM63.4607 32.5794H81.642V27.8634H68.6908V1.83221H63.4607V32.5794V32.5794ZM36.4128 32.5794H55.6164V27.8634H41.6429V18.6289H51.8566V13.9113H41.6429V6.59122H54.3093V1.87202H36.4128V32.5794ZM5.84821 17.0442C5.84821 11.1862 9.93437 5.85857 16.8795 5.85857C20.0666 5.85857 23.212 6.99736 25.3782 9.11248L28.1557 5.49225C27.1349 4.27224 23.212 1.14097 16.8795 1.14097C7.07374 1.14097 0.291748 8.54229 0.291748 17.1652C0.291748 25.992 7.44172 33.3121 17.4507 33.3121C21.8632 33.3121 25.5414 31.8898 28.3605 29.2045L25.9494 25.8279C24.7239 27.0496 21.5785 28.6359 17.6971 28.6359C10.7103 28.6359 5.84821 23.4707 5.84821 17.0442V17.0442Z" fill="#000"></path>
</svg>