<?xml version="1.0" encoding="utf-8"?>
<!-- Generator: Adobe Illustrator 19.2.1, SVG Export Plug-In . SVG Version: 6.00 Build 0)  -->
<svg version="1.1" id="layer" xmlns="http://www.w3.org/2000/svg" xmlns:xlink="http://www.w3.org/1999/xlink" x="0px" y="0px"
	 viewBox="0 0 652 652" style="enable-background:new 0 0 652 652;" xml:space="preserve">
<path d="M439.3,354.1H437L404.5,289h14.3l19.5,41.3h0.1L458,289h13.8L439.3,354.1z M147.5,289v10.6h-31.4v16.1h29.3v10.2h-29.3v16.3
	h34.3v10.6h-46.7V289H147.5z M301.6,289v10.6h-31.4v16.5h29.3v10.2h-29.3v15.9h34.2v10.6h-46.7V289H301.6z M537.2,289v10.6h-31.4
	v16.6h29.3v10.2h-29.3v15.7h34.3v10.6h-46.7V289H537.2z M567.1,352.9V289h21.7c21.7,0,32.8,13.2,32.8,32c0,18.7-11.1,32-32.8,32
	H567.1z M588.8,342.4c14.1,0,20.5-7.1,20.5-21.5c0-14.4-6.4-21.5-20.5-21.5h-9.3v43H588.8z M226.5,295.8l-5.9,8.1
	c-5.2-3.4-10.7-5.4-17.4-5.4c-9.3,0-12,3.6-12,6.9c0,11.4,37.2,4.8,37.2,27.4c0,12.3-10.7,20.9-25.7,20.9
	c-10.4,0-19.5-3.2-26.8-11.5l6.7-7.8c6.2,5.8,12.3,8.7,20.3,8.7c9.3,0,13.8-4.4,13.8-9.3c0-13.7-38.2-4.5-38.2-27.8
	c0-10.2,10.3-18,24.9-18C212.8,288.1,221.5,291.4,226.5,295.8 M47.8,319.7H34v-20.5h13.6c7.8,0,11.4,3.8,11.4,9.8
	C59.1,316.5,54.2,319.7,47.8,319.7 M78,352.6l-1.1-9.4c-1,0.2-2.1,0.3-3.5,0.3c-5.2,0-7.8-1.6-11-6.5c-1.2-1.8-2.4-4.1-3.5-5.8
	c-1.2-1.9-2-2.8-3.3-3.6c9.2-2.2,15.6-8.9,15.6-19.1c0-11.4-8.1-19.6-23.7-19.6H21.6v63.9H34v-23.5h5.6c3.2,0,4.6,1.1,5.9,3.2
	c1.3,2,5.7,9.2,5.7,9.2c5.6,8.8,11.7,11.7,20,11.7C74.2,353.6,76.6,353.1,78,352.6 M361.2,319.7h-13.8v-20.5H361
	c7.8,0,11.4,3.8,11.4,9.8C372.5,316.5,367.6,319.7,361.2,319.7 M391.4,352.6l-1.1-9.4c-1,0.2-2.1,0.3-3.5,0.3c-5.2,0-7.8-1.6-11-6.5
	c-1.2-1.8-2.4-4.1-3.5-5.8c-1.2-1.9-2-2.8-3.3-3.6c9.2-2.2,15.6-8.9,15.6-19.1c0-11.4-8.1-19.6-23.7-19.6H335v63.9h12.4v-23.5h5.6
	c3.2,0,4.6,1.1,5.9,3.2c1.3,2,5.7,9.2,5.7,9.2c5.6,8.8,11.7,11.7,20,11.7C387.5,353.6,390,353.1,391.4,352.6"/>
</svg>
