<svg width="176" height="373" viewBox="0 0 176 373" fill="none" xmlns="http://www.w3.org/2000/svg">
<path d="M157.9 214.001C157.9 220.865 157.462 227.627 156.613 234.26C129.925 283.654 77.6814 317.21 17.5997 317.21C-69.606 317.21 -140.3 246.516 -140.3 159.31C-140.3 152.446 -139.862 145.684 -139.013 139.051C-112.326 89.6571 -60.0815 56.1006 0.000106812 56.1006C87.2059 56.1006 157.9 126.795 157.9 214.001ZM-157.9 214.001C-157.9 187.869 -151.552 163.221 -140.315 141.512C-140.966 147.355 -141.3 153.294 -141.3 159.31C-141.3 247.068 -70.1583 318.21 17.5997 318.21C77.1311 318.21 129.016 285.473 156.234 237.019C145.091 313.314 79.3874 371.901 0.000106812 371.901C-87.2057 371.901 -157.9 301.206 -157.9 214.001ZM-138.635 136.292C-127.491 59.9964 -61.7876 1.41016 17.5997 1.41016C104.805 1.41016 175.5 72.1044 175.5 159.31C175.5 185.441 169.152 210.09 157.915 231.798C158.566 225.956 158.9 220.017 158.9 214.001C158.9 126.243 87.7582 55.1006 0.000106812 55.1006C-59.5313 55.1006 -111.416 87.838 -138.635 136.292Z" stroke="#FE4A23" stroke-opacity="0.2"/>
</svg>
